<?xml version="1.0" encoding="utf-8"?>
<!-- Generator: Adobe Illustrator 18.0.0, SVG Export Plug-In . SVG Version: 6.00 Build 0)  -->
<!DOCTYPE svg PUBLIC "-//W3C//DTD SVG 1.1//EN" "http://www.w3.org/Graphics/SVG/1.1/DTD/svg11.dtd">
<svg version="1.1" xmlns="http://www.w3.org/2000/svg" xmlns:xlink="http://www.w3.org/1999/xlink" x="0px" y="0px"
	 viewBox="0 0 181.6 226.2" enable-background="new 0 0 181.6 226.2" xml:space="preserve">
<g id="Right_Arm">
	<g id="Hand_1_">
	</g>
</g>
<g id="Left_Arm">
	<g id="Hand">
	</g>
</g>
<g id="Hat">
	<g id="Grey_Band">
	</g>
</g>
<g id="Body">
	<g id="Pants">
	</g>
	<g id="Jacked_Edge">
	</g>
	<g id="Grey_Shirt">
	</g>
</g>
<g id="Right_Leg">
	<g id="Shoe_1_">
	</g>
	<g id="Cuff_1_">
	</g>
</g>
<g id="Left_Leg">
	<g id="Shoe">
	</g>
	<g id="Leg">
	</g>
</g>
<g id="Eyes">
	<g id="Eye">
	</g>
</g>
<g id="Eyebrows">
	<g id="Eyebrow">
	</g>
</g>
<g id="Layer_27">
</g>
<g id="Nose">
</g>
<g id="Mouth">
</g>
<g id="Newspaper_Inner_Paper">
</g>
<g id="Head">
	<g id="Grey_Hair">
	</g>
	<g id="Newspaper_Main">
		<path fill="#32B98E" d="M166.6,226.5H15c-8.2,0-15-6.8-15-15V15C0,6.8,6.8,0,15,0h151.6c8.2,0,15,6.8,15,15v196.5
			C181.6,219.7,174.9,226.5,166.6,226.5z"/>
		<text transform="matrix(1 0 0 1 36.1786 46.4857)" fill="#FFFFFF" font-family="'LondrinaSolid-Regular'" font-size="38">Verhaal</text>
	</g>
	<g>
		<path fill="#157F59" d="M10,226.2l20.3-41.9L19.2,179L0.8,216.9C2,220,4.7,225.1,10,226.2z"/>
	</g>
	
		<rect id="Arm_5_" x="107.7" y="147.2" transform="matrix(-0.4609 -0.8875 0.8875 -0.4609 7.533 362.5321)" fill="#157F59" width="12.4" height="63.6"/>
	<circle fill="#FFD392" cx="143.1" cy="163.7" r="6.6"/>
	<rect id="Head_3_" x="17" y="123.7" fill="#FFD392" width="82.2" height="56.2"/>
	<path fill="#7D411C" d="M21.2,129.2c0,0,0.3-5.2,9.4-3.1c8.2,1.9,19.2,4.7,27,4.9c8.6,0.2,21.5-1.9,21.5-1.9s8.3-2.4,13.7-1.6
		c0,0.4,6,35.8,6,35.8c3-2.2,6.3-32.1,1-47.2c0,0-6.6-2.5-7.1-2.7c-2.3-1.2-0.7,2.5-5,3.6c-3.6,0.9-27.3,4.1-31,4.2
		c-3.6,0.1-12.3-2.9-14.5-4.1c-4.2-2.3-14.5,1.5-14.6,1.5c-3.8,0.8-9-7.5-13-3.9c-5.5,5-0.6,45.9,2.2,45.6"/>
	<path id="Hat_3_" fill="#157F59" d="M13,116.1c0,0-17.7,4.1-17.7,7.8c0,3.6,2.7,5.6,20.5,6.3c17.7,0.7,27.2,3.5,43.3,3.5
		c15.6,0,34-3,43.1-3.3c9.5-0.3,18-0.6,18.1-4.9c0.1-4.3-17.4-10.7-20.1-11.9c-2.7-1.2-8.7-29.6-8.7-29.6s-2.1-8.2-8.2-7.8
		c-7.5,0.5-14.3,5.1-26.5,5.5c-12,0.5-19.4-5.5-25.8-5.9c-6.4-0.4-8,5.2-8,5.2L13,116.1z"/>
	<path fill="#C1C1C0" d="M96.2,104c0,0-4.7,1.9-4.7,2c-31.2,14.5-75.5-0.3-75.5-0.3l-3,10.5c0,0,10.4,6.3,44.1,6.2
		c21.5-0.1,38.1-5.8,42.5-9.1c-0.1-0.1-1.4-2.9-1.5-3.1"/>
	<polygon id="Shirt_3_" fill="#157F59" points="99.1,252.2 16.8,252.2 16.8,176.3 38.5,176.3 40.2,176.6 59.5,183.7 73.1,177.4 
		75.6,176.3 99.1,176.3 	"/>
	<polygon fill="#5C090F" points="75.6,252.2 38.3,252.2 38.3,176.3 40.4,176.3 58.7,178.8 73.3,176.3 75.6,176.3 	"/>
	<rect x="40.4" y="176.3" fill="#B2B3B3" width="32.9" height="75.9"/>
	<path id="Eye_3_" fill="#383025" d="M78.3,141.4c0,3.4-2,6.1-4.5,6.1c-2.5,0-4.5-2.7-4.5-6.1c0-3.4,2.1-5.1,4.6-5.1
		C76.4,136.4,78.3,138.1,78.3,141.4z"/>
	<path fill="#383025" d="M46.1,141.2c0,3.5-2.1,6.4-4.6,6.4c-2.6,0-4.6-2.9-4.6-6.4c0-3.5,2.3-5.3,4.9-5.3
		C44.2,135.9,46.1,137.7,46.1,141.2z"/>
	<path id="Nose_3_" fill="#383025" d="M59.2,147.9l2.9,9.9c0.2,0.7-0.3,1.3-1,1.3l-3.5,0v-1.3l2.7,0.1c0.2,0,0.3-0.2,0.3-0.4"/>
	<g>
		<path fill="#383025" d="M66.3,162.1c0,0,0,0.2-0.2,0.6c-0.2,0.4-0.5,0.9-1,1.4c-0.2,0.3-0.5,0.5-0.9,0.8c-0.3,0.2-0.7,0.5-1.1,0.6
			c-0.4,0.2-0.8,0.4-1.3,0.5c-0.4,0.2-0.9,0.2-1.4,0.2c-0.5,0-0.9,0-1.4,0c-0.5-0.1-0.9-0.1-1.3-0.3c-0.4-0.1-0.8-0.3-1.2-0.4
			c-0.4-0.2-0.7-0.4-1-0.6c-0.6-0.4-1-0.8-1.2-1.1c-0.3-0.3-0.4-0.5-0.4-0.5s0.2,0,0.6,0c0.4,0,0.9,0,1.5,0c0.3,0,0.6,0,1,0
			c0.3,0,0.7,0,1,0c0.3,0,0.7,0,1.1,0c0.4,0,0.7,0,1.1-0.1c0.3,0,0.7,0,1-0.1c0.2,0,0.3,0,0.5-0.1c0.2,0,0.3-0.1,0.5-0.1
			c0.7-0.1,1.3-0.2,1.9-0.4c0.6-0.1,1.1-0.3,1.5-0.3C66.1,162.2,66.3,162.1,66.3,162.1z"/>
	</g>
</g>
</svg>
