<?xml version="1.0" encoding="utf-8"?>
<!-- Generator: Adobe Illustrator 18.0.0, SVG Export Plug-In . SVG Version: 6.00 Build 0)  -->
<!DOCTYPE svg PUBLIC "-//W3C//DTD SVG 1.1//EN" "http://www.w3.org/Graphics/SVG/1.1/DTD/svg11.dtd">
<svg version="1.1" xmlns="http://www.w3.org/2000/svg" xmlns:xlink="http://www.w3.org/1999/xlink" x="0px" y="0px"
	 viewBox="0 0 181.6 226.2" enable-background="new 0 0 181.6 226.2" xml:space="preserve">
<g id="Right_Arm">
	<g id="Hand_1_">
	</g>
</g>
<g id="Left_Arm">
	<g id="Hand">
	</g>
</g>
<g id="Hat">
	<g id="Grey_Band">
	</g>
</g>
<g id="Body">
	<g id="Pants">
	</g>
	<g id="Jacked_Edge">
	</g>
	<g id="Grey_Shirt">
	</g>
</g>
<g id="Right_Leg">
	<g id="Shoe_1_">
	</g>
	<g id="Cuff_1_">
	</g>
</g>
<g id="Left_Leg">
	<g id="Shoe">
	</g>
	<g id="Leg">
	</g>
</g>
<g id="Eyes">
	<g id="Eye">
	</g>
</g>
<g id="Eyebrows">
	<g id="Eyebrow">
	</g>
</g>
<g id="Layer_27">
</g>
<g id="Nose">
</g>
<g id="Mouth">
</g>
<g id="Newspaper_Inner_Paper">
</g>
<g id="Head">
	<g id="Grey_Hair">
	</g>
	<g id="Newspaper_Main">
		<path fill="#32B98E" d="M166.6,226.5H15c-8.2,0-15-6.8-15-15V15C0,6.7,6.8,0,15,0h151.6c8.2,0,15,6.8,15,15v196.5
			C181.6,219.7,174.9,226.5,166.6,226.5z"/>
		<g>
			<path fill="#FFFFFF" d="M67.5,28.5c-1.8,0.3-3.9,0.5-5.7,0c0.6-2.8-4.3-3.8-4.7-1c-0.1,0.3,0,0.7,0,1c0.4,1.2,1.4,1.5,2.5,1.6
				c2.7,0.3,5.1,1.8,6.6,4c1.8,2.3,1.8,5.5,0.6,8.2c-1.2,3.1-4.2,4.5-7.3,4.4c-4.4-0.1-9.3-3-9-7.8v-0.1v-0.1c1.8-0.3,4.1,0,5.8,0
				c0.2,3.2,5.7,3.3,5.1-0.2c-0.3-2.4-3.3-2.8-5.4-3.2c-1-0.2-1.9-0.7-2.6-1.3c-4.7-4.4-2.4-11.4,2.5-13.4c2.5-1,6-0.7,8.4,0.4
				C66.7,22.2,68.3,24.7,67.5,28.5L67.5,28.5z"/>
			<path fill="#FFFFFF" d="M84.7,45.2c-1.7,2.5-5.9,1.7-8.8,1.7c-1.3-0.2-2.4-0.8-3.3-1.7c-2.7-2.4-1.6-7.6-2-10.9
				c0-0.9,0.1-1.8,0.2-2.7c0-0.6,0.5-1.7,0.6-2.2c0.7-1.6,3.3-2.2,5.7-2.2c1,0.1,1.9-0.1,3,0c1.6,0.1,3.2,0.6,4.2,1.6
				c1.4,1,1.4,3.5,1.5,6.8c-1.3,0.3-3.5,0-4.8-0.2c-0.3-1.8-1.5-2.9-3.5-2.4c-0.5,0.2-0.9,0.4-1.3,0.8c-0.2,0.1-0.3,0.3-0.3,0.8
				c-0.2,1.6-0.1,3.2-0.2,4.9c-0.2,2.4,3.2,2.5,4.4,1.7c0.5-0.3,0.8-1.4,0.9-2c1,0.1,3.8-0.2,4.8,0.1C85.5,41.8,85.3,44.5,84.7,45.2
				z"/>
			<path fill="#FFFFFF" d="M94.8,27c1,0.1,1.9-0.1,3,0c1.6,0.1,3.2,0.6,4.2,1.6c1.4,1,1.4,4.2,1.6,7.5c-0.1,3-0.2,7.9-1.2,8.9
				c-1.7,2.5-5.9,1.7-8.8,1.7c-1.3-0.2-2.4-0.8-3.3-1.7c-2.7-2.4-1.6-7.6-1.9-10.9c0-0.9,0-1.8,0.2-2.7c0-0.6,0.5-1.7,0.6-2.2
				C89.8,27.6,92.4,27,94.8,27z M93.5,34.4c-0.2,1.6-0.1,3.2-0.2,4.9c-0.1,2.3,3,2.4,4.4,1.7c0.4-0.2,0.7-0.6,0.9-1.3
				c0.2-1.6,0.4-3.3,0.1-4.8c-0.3-1.8-1.5-2.7-3.5-2.2c-0.5,0.2-0.9,0.4-1.3,0.8C93.7,33.8,93.5,34,93.5,34.4z"/>
			<path fill="#FFFFFF" d="M113.9,28.1c1.9-0.6,5.2-0.6,5.2-0.5c0,3.5-0.1,5.1,0,6.7l-0.3-0.1c-0.3-0.1-0.5-0.2-0.8-0.3
				c-0.6-0.2-1.4-0.3-1.4-0.3c-2.7-0.3-4.7-0.2-4.6,2.6c0.1,3.5,0.2,6.2,0.2,10v0.2c-1.7,0.5-2.7,0-5.1,0.2c0-6.2-0.2-12.3,0-19
				c1.2,0.1,1.4,0.1,2.7,0c0.4,0,2.5-0.3,2.5,0c0,0.8,0,0.6,0,1.3C112.3,28.7,113.2,28.4,113.9,28.1z"/>
			<path fill="#FFFFFF" d="M125.8,37.6c0,1.5,0,2.4,0.6,3.3c1.2,2.4,4.9,2.4,4.7-1.7c1,0.1,3.7-0.2,4.8,0.1
				c-0.2,2.6-0.3,5.3-1.1,5.9c-1.7,2.4-5.9,1.7-8.7,1.7c-0.7-0.1-1.4-0.3-2-0.7c-2.7-1.9-3.6-6.4-3.5-10.5c0.2-1.9,0.2-3.6,0.8-5.3
				c1.3-3,5.8-4.1,9.4-3.2c4.7,0.8,5.4,5.2,5.1,9.4c-1.1,0.3-8.6,0.6-10.2,0.3V37.6z M129.1,30.7c-2.4,0-3,1.1-3.2,2.5
				c-0.2,1.1-0.2,0.8,3.6,0.8c2.6,0,2.4,0.3,2.4-0.5c0-1-0.6-2-1.5-2.5C130,30.8,129.7,30.7,129.1,30.7z"/>
		</g>
		<g>
			<path fill="#F29D20" d="M126.4,226.1c0-32.5,0-65,0-97.5c0-0.8,0-1.6,0.2-2.3c0.8-1.9,1.9-0.8,2.8-0.1c3.5,2.5,6.9,5,10.6,7.7
				c-1.2-4.1-2.4-7.9-3.7-11.7c-1-3.1-0.9-3.3,1.7-5.2c3.2-2.3,6.4-4.6,9.7-7.1c-4.2,0-8.3-0.1-12.3,0c-2.1,0.1-3.3-0.7-4-2.7
				c-1.5-5-3.3-9.9-4.9-14.9c-0.3-3.3-0.1-6.5-0.1-9.8c0-0.8,0.1-1.6,0.7-2.1c15.6,0,31.1,0,46.7-0.1c1.2,0,1.3,0.5,1.4,1.5
				c0.6,6.1,0.5,12.3,0.1,18.4c-0.1,1.3-0.1,2.6-0.1,4c0.7,3-0.5,5.9-0.8,8.8c-2.7,17.6-6.7,34.9-14.1,51.2c-0.6,1.3-1.4,2.6-2,3.9
				c-0.8,1.6-1.9,3-3,5c2.8-2.4,5.3-4.5,7-7.3c1.5-1.6,3.6-2.5,5.4-3.7c5.7-4,10.2-8.7,13.8-14.1l0,15c-8.4,8.3-18.9,13.9-30.8,17.2
				c-1.5,0.4-2.7,1-3.8,2.1c-3.8,3.7-8.2,6.4-13.4,7.6c-1.3,0.3-1.8,0.8-1.8,2.1c0.1,2.9,0,5.8,0,8.6c0,3,1.4,5.4,3.4,7.4
				c6.2,6.2,14,9.3,22.3,11.4c2.1,0.5,4.3,0.6,6.4,0.9c2.2,0.4,3.8,2.4,3.6,4.7c0,0.4-0.1,0.8-0.2,1.2"/>
			<path fill="#F29D20" d="M181.6,113.5c-0.6-0.1-1.3-0.3-1.6-0.8c0.1-2.9-0.4-5.8,0.8-8.5c0.3,0,0.5,0,0.8,0"/>
			<path fill="#F0C41A" d="M87.2,226.2c-0.2-0.5-0.2-0.9-0.2-1.4c0-2.5,1.8-4.2,4.4-4.5c9.7-0.9,18.4-4.4,26-10.4
				c3.7-2.9,5.9-6.5,5.4-11.5c-0.2-2.5,0.6-5.2-0.2-7.4c-0.9-2.2-4.2-1.7-6.2-2.7c-3.6-1.8-6.8-4-9.6-6.9c-1-1-2.1-1.7-3.5-2.1
				C74.7,170.6,58,151.6,53.7,122c-0.8-5.4-0.9-10.8-0.9-16.3c0-1.1,0.1-1.7,1.5-1.7c7.5,0.1,14.9,0.1,22.4,0.1
				c1,2.8,0.9,5.6,0.8,8.5c-0.6,1.1-1.7,0.9-2.7,0.9c-3.2,0-6.4,0.1-9.6,0c-1.8,0-2.6,0.6-2.4,2.4c1.9,21.3,10.5,38.5,30,49
				c0.6,0.3,1.2,0.6,1.8,1.1c1.6,2.1,3.2,4.2,4.7,6.4c0.2,0.1,0.2,0.4,0.4,0.5c-0.1-0.3-0.3-0.5-0.5-0.7c-1-1.6-2.2-3.1-3.1-4.9
				c-8.7-17.2-12.8-35.7-15.9-54.5c-0.3-2.9-1.4-5.8-0.7-8.8c-0.1-5.6-0.8-11.2-0.4-16.8c0.1-1.9,0.3-3.7,0.4-5.6
				c0-1.3,0.6-1.5,1.7-1.5c15.3,0.1,30.7,0.1,46,0.1c0,4.2,0,8.4,0,12.7c0.2,0.7,0.2,1.4,0,2.1c-1.4,4.3-2.8,8.6-4.3,12.9
				c-0.5,1.5-1.7,1.9-3.1,1.9c-4.3,0-8.5,0-12.9,0c3.6,2.7,7.1,5.2,10.6,7.7c1.4,1,1.8,2.2,1.2,3.8c-1.5,4.1-2.7,8.3-4,12.6
				c3.5-2.4,6.7-4.9,10.1-7.3c0.7-0.5,1.3-1.4,2.4-0.9c0,33.5,0,67,0,100.5"/>
			<path fill="#9F6928" d="M173.9,113c0,0,0.9-6,1.4-9c1.9,0,3.7,0,5.6,0.1c0.1,2.9-0.5,8.8-0.5,8.8L173.9,113z"/>
			<path fill="#9F832F" d="M79.5,104.1c0.4,3,1.3,8.9,1.3,8.9l-3.7-0.1c0,0-0.7-5.8-0.5-8.8C77.6,104.1,78.6,104.1,79.5,104.1z"/>
			<path fill="#FFFFFF" d="M127.2,125.7c-4.4,3.1-8.9,6.3-13.7,9.7c1.5-4.8,2.8-9.3,4.5-13.7c0.7-1.9,0.5-3-1.3-4.1
				c-3.8-2.5-7.4-5.3-11.7-8.4c5.3,0,9.9-0.1,14.5,0.1c2,0.1,2.9-0.6,3.4-2.5c1.3-4.6,2.9-9.2,4.3-13.8c2,4.5,3.2,9.3,4.8,14
				c0.5,1.6,1.2,2.2,2.9,2.2c4.7-0.1,9.5,0,14.9,0c-4.3,3.1-8,6-11.9,8.6c-1.7,1.1-1.7,2.1-1.1,3.8c1.6,4.5,2.9,9,4.6,14
				c-4.3-3.1-8.2-6-12.2-8.8C128.5,126.3,128.1,125.6,127.2,125.7z"/>
			<path fill="#A16B29" d="M158,168.2c1.6-0.7,3.1-1.5,4.7-2.2c-1.1,3-3.8,4.5-5.9,6.6c-0.6,0.6-1.4,1-2.3,1.4
				C155.4,171.9,156.4,169.8,158,168.2z"/>
			<path fill="#A48731" d="M94.4,166.7c0.8,0.3,1.5,0.6,2.3,0.8c0.9,1.6,1.9,3.1,2.8,4.7c0.2,0.5,0,0.6-0.5,0.5
				C97.4,170.8,95.8,168.8,94.4,166.7z"/>
			<path fill="#B5952F" d="M99.1,172.7c0.2-0.2,0.3-0.3,0.5-0.5c0.4,0.6,0.9,1.2,1.7,2.3C99.9,174,99.5,173.4,99.1,172.7z"/>
		</g>
	</g>
</g>
</svg>
