<?xml version="1.0" encoding="utf-8"?>
<!-- Generator: Adobe Illustrator 18.0.0, SVG Export Plug-In . SVG Version: 6.00 Build 0)  -->
<!DOCTYPE svg PUBLIC "-//W3C//DTD SVG 1.1//EN" "http://www.w3.org/Graphics/SVG/1.1/DTD/svg11.dtd">
<svg version="1.1" xmlns="http://www.w3.org/2000/svg" xmlns:xlink="http://www.w3.org/1999/xlink" x="0px" y="0px"
	 viewBox="0 0 181.6 226.2" enable-background="new 0 0 181.6 226.2" xml:space="preserve">
<g id="Right_Arm">
	<g id="Hand_1_">
	</g>
</g>
<g id="Left_Arm">
	<g id="Hand">
	</g>
</g>
<g id="Hat">
	<g id="Grey_Band">
	</g>
</g>
<g id="Body">
	<g id="Pants">
	</g>
	<g id="Jacked_Edge">
	</g>
	<g id="Grey_Shirt">
	</g>
</g>
<g id="Right_Leg">
	<g id="Shoe_1_">
	</g>
	<g id="Cuff_1_">
	</g>
</g>
<g id="Left_Leg">
	<g id="Shoe">
	</g>
	<g id="Leg">
	</g>
</g>
<g id="Eyes">
	<g id="Eye">
	</g>
</g>
<g id="Eyebrows">
	<g id="Eyebrow">
	</g>
</g>
<g id="Layer_27">
</g>
<g id="Nose">
</g>
<g id="Mouth">
</g>
<g id="Newspaper_Inner_Paper">
</g>
<g id="Head">
	<g id="Grey_Hair">
	</g>
	<g id="Newspaper_Main">
		<path fill="#32B98E" d="M166.6,226.5H15c-8.2,0-15-6.8-15-15V15C0,6.7,6.8,0,15,0h151.6c8.2,0,15,6.8,15,15v196.5
			C181.6,219.7,174.9,226.5,166.6,226.5z"/>
		<g>
			<path fill="#FFFFFF" d="M26,46.4c-0.4,0-1.3,0.2-2.4,0.2c-1.1,0-2.4,0-3.2-0.3c-2.3-8.2-3.7-16.9-4.4-25.7v0
				c0.6-0.7,4.6-0.6,5.4-0.4c0.4,2,0,9.6,2,17.8c1.9-8.2,2.2-13.5,3.3-17.8c0,0,0-0.1,0.1-0.1c1.7,0.4,3.7,0,5.5,0.3
				C30.6,29.5,28.4,37.6,26,46.4z"/>
			<path fill="#FFFFFF" d="M37.6,27c1,0.1,1.9-0.1,3,0c1.6,0.1,3.2,0.6,4.2,1.6c1.4,1,1.4,4.2,1.6,7.5c-0.1,3-0.2,7.9-1.2,8.9
				c-1.7,2.5-5.9,1.7-8.8,1.7c-1.3-0.2-2.4-0.8-3.3-1.7c-2.7-2.4-1.6-7.6-1.9-10.9c0-0.9,0-1.8,0.2-2.7c0-0.6,0.5-1.7,0.6-2.2
				C32.7,27.6,35.2,27,37.6,27z M36.3,34.4c-0.2,1.6-0.1,3.2-0.2,4.9c-0.1,2.3,3,2.4,4.4,1.7c0.4-0.2,0.7-0.6,0.9-1.3
				c0.2-1.6,0.4-3.3,0.1-4.8c-0.3-1.8-1.5-2.7-3.5-2.2c-0.5,0.2-0.9,0.4-1.3,0.8C36.5,33.8,36.4,34,36.3,34.4z"/>
			<path fill="#FFFFFF" d="M55.4,27c1,0.1,1.9-0.1,3,0c1.6,0.1,3.2,0.6,4.2,1.6c1.4,1,1.4,4.2,1.6,7.5c-0.1,3-0.2,7.9-1.2,8.9
				c-1.7,2.5-5.9,1.7-8.8,1.7c-1.3-0.2-2.4-0.8-3.3-1.7c-2.7-2.4-1.6-7.6-1.9-10.9c0-0.9,0-1.8,0.2-2.7c0-0.6,0.5-1.7,0.6-2.2
				C50.4,27.6,53,27,55.4,27z M54.1,34.4c-0.2,1.6-0.1,3.2-0.2,4.9c-0.1,2.3,3,2.4,4.4,1.7c0.4-0.2,0.7-0.6,0.9-1.3
				c0.2-1.6,0.4-3.3,0.1-4.8c-0.3-1.8-1.5-2.7-3.5-2.2c-0.5,0.2-0.9,0.4-1.3,0.8C54.3,33.8,54.2,34,54.1,34.4z"/>
			<path fill="#FFFFFF" d="M74.6,28.1c1.9-0.6,5.2-0.6,5.2-0.5c0,3.5-0.1,5.1,0,6.7l-0.3-0.1c-0.3-0.1-0.5-0.2-0.8-0.3
				c-0.6-0.2-1.4-0.3-1.4-0.3c-2.7-0.3-4.7-0.2-4.6,2.6c0.1,3.5,0.2,6.2,0.2,10v0.2c-1.7,0.5-2.7,0-5.1,0.2c0-6.2-0.2-12.3,0-19
				c1.2,0.1,1.4,0.1,2.7,0c0.4,0,2.5-0.3,2.5,0c0,0.8,0,0.6,0,1.3C73,28.7,73.8,28.4,74.6,28.1z"/>
			<path fill="#FFFFFF" d="M89.3,25.6c0,0.6,0,1.4,0,2.1c1.6,0,3.2-0.2,5.7-0.3c0.7,0.8,0,3.4,0.2,4.7h-5.9c0,2.7,0,5.4,0,7.7
				c1,1.4,4.1,1.6,5.9,1.5c0.2,1.4,0.5,3.6,0,5.1c-4,0.2-9.1-0.3-10.4-3.3c-0.6-3.9-0.6-7.2-0.6-10.9c-0.8,0-1.7,0-2.7,0l0.1-4.6
				c1,0,1.9,0,2.7,0c0-2.2-0.2-5.4,0-7.3c1.3-0.2,3.2,0.3,4.9,0.1V25.6z"/>
			<path fill="#FFFFFF" d="M104.3,54.1c-2.4,0-4.3-1.1-5.5-2.8c-0.4-0.8-0.7-2.4-0.6-3.2c1-0.4,3.7-0.2,4.9,0c0,2.7,3.9,3.2,4.5,0.3
				c0-0.5,0.1-1.1,0.1-1.5s0-0.9,0-1.3c-1,1.1-2.9,0.9-4.3,1c-1.9,0-4-0.5-4.9-2.4c-0.7-1.4-1-2.9-1.1-4.4c0-4.8-0.2-11.7,6.3-12.1
				c1.6-0.1,3.2,0.4,3.8,1.8c0.4,0.2,0-1.4,0.2-1.8c1.7-0.2,3.4,0,5.1,0c0.2,6.3,0.3,13.3,0,20.6c0,1.2,0.2,2.5-0.3,3.3
				c-1.4,2.2-3,2.5-4.2,2.7C107.7,54.2,106.4,54.1,104.3,54.1z M101.6,37.8c0,1.3,0.4,2.4,1.1,3.3c0.9,1.1,2.6,1.3,4,0.9
				c0.9-0.3,1-1.4,1.1-2.3c0-2,0-4.2-0.5-6.1c-0.6-1.6-2.9-1.6-4.1-0.6c-0.8,0.9-1.3,1.9-1.5,3.1c-0.1,0.5-0.1,1-0.1,1.5V37.8z"/>
			<path fill="#FFFFFF" d="M131.1,28.5v0.4c-0.2,5.5,0.3,10.7-0.1,16.1c0,0.6,0.1,1.4-0.5,1.6h-0.5c-0.8,0-1.7-0.1-2.5-0.1
				c-0.6,0-1.1,0.1-1.6,0.1c-0.3-0.1-0.5-0.4-0.5-0.8c0-0.6,0.2-0.8,0.2-1.3c-1.2,1.2-3.2,2.2-5,2.2c-3.9,0-5.6-6.1-5.6-10.2
				c0-5.1,2.8-8.7,6.4-8.8c1.8,0,3.2,0,3.9,1.7c0-0.8,0.2-1.3,0.2-1.9c0-0.1,1.5,0,1.8,0c0.9,0,2.1,0.1,3.7,0.2
				C131.1,27.9,131.1,28.2,131.1,28.5z M119.8,37.1c0,2.3,1.3,4.1,3.4,4.1c2.5,0,2.4-1.7,2.4-4.6c0-3.5,0.1-4-2-4s-3.3,1.2-3.5,2.4
				C119.8,35.8,119.8,36.5,119.8,37.1z"/>
			<path fill="#FFFFFF" d="M139.8,29c2.1-1.5,5.5-1.9,7.6-0.1c1.6,1.4,0.5,12.3,0.8,17.6c-1.8,0.3-3,0.2-4.7,0.2
				c-0.2-2.3,0-6.1-0.2-8.8c-0.1-1.3-0.2-3.1-0.9-3.7c0,0-0.1,0-0.2-0.1c-0.8-0.4-3.4-0.7-3.6,2.1c-0.2,3.5,0.4,6.8,0,10.2v0.2
				c-1.7,0.5-2.3,0-4.7,0.2c0-6.2-0.2-12.3,0-19c1.2,0.1,1.4,0.1,2.7,0c0.4,0,2.3-0.4,2.3,0c0.1,0.9,0,1.3,0.1,2
				C139.1,29.4,139.5,29.2,139.8,29z"/>
			<path fill="#FFFFFF" d="M157.9,54.1c-2.4,0-4.3-1.1-5.5-2.8c-0.4-0.8-0.7-2.4-0.6-3.2c1-0.4,3.7-0.2,4.9,0c0,2.7,3.9,3.2,4.5,0.3
				c0-0.5,0.1-1.1,0.1-1.5s0-0.9,0-1.3c-1,1.1-2.9,0.9-4.3,1c-1.9,0-4-0.5-4.9-2.4c-0.7-1.4-1-2.9-1.1-4.4c0-4.8-0.2-11.7,6.3-12.1
				c1.6-0.1,3.2,0.4,3.8,1.8c0.4,0.2,0-1.4,0.2-1.8c1.7-0.2,3.4,0,5.1,0c0.2,6.3,0.3,13.3,0,20.6c0,1.2,0.2,2.5-0.3,3.3
				c-1.4,2.2-3,2.5-4.2,2.7C161.4,54.2,160,54.1,157.9,54.1z M155.3,37.8c0,1.3,0.4,2.4,1.1,3.3c0.9,1.1,2.6,1.3,4,0.9
				c0.9-0.3,1-1.4,1.1-2.3c0-2,0-4.2-0.5-6.1c-0.6-1.6-2.9-1.6-4.1-0.6c-0.8,0.9-1.3,1.9-1.5,3.1c-0.1,0.5-0.1,1-0.1,1.5V37.8z"/>
		</g>
		<g>
			<path fill="#E3D5B2" d="M11.3,226l11.3-3.6L20.2,76L-1,86.2l1,127.9C0,214.2,1.9,223.9,11.3,226z"/>
		</g>
		<polygon fill="#C5AF8E" points="20.2,223.1 64.8,236.2 64.8,97.6 20.2,76 		"/>
		<polygon fill="#E3D5B2" points="64.8,97.6 109.8,75.1 109.8,221.7 64.8,236.2 		"/>
		<polygon fill="#C5AF8E" points="109.8,221.7 154.3,234.9 154.3,96.2 109.8,74.6 		"/>
		<g>
			<path fill="#C03A2B" d="M114.3,115.4c0.3-0.3,0.5-0.6,0.7-0.8c1.7-2,3.4-4,5.1-5.9c1.2-1.4,1.2-3.1,0-4.1
				c-1.3-1.1-2.8-0.9-4.1,0.6c-1.7,1.9-3.3,3.9-5,5.8c-0.3,0.3-0.5,0.6-0.8,0.9c-2.3-2-4.5-3.8-6.7-5.7c-1.5-1.3-3.1-1.3-4.2,0
				c-1.1,1.2-0.8,2.9,0.7,4.1c2.2,1.9,4.4,3.8,6.7,5.8c-2,2.3-3.9,4.6-5.8,6.8c-1.2,1.4-1.1,3.1,0.1,4.1c1.2,1,2.9,0.8,4.1-0.6
				c1-1.2,2-2.4,3.1-3.6c0.9-1.1,1.8-2.1,2.7-3.2c2.4,2,4.7,4,7,5.9c1.3,1.1,2.9,1,3.9-0.2c1-1.2,0.8-2.9-0.5-4
				c-0.6-0.5-1.2-1-1.8-1.5C117.7,118.3,116.1,116.8,114.3,115.4z M52.3,133.2c0.2-0.1,0.6-0.1,1.1-0.3c1.2-0.6,2.4-1.2,3.5-1.8
				c1.6-0.8,2.2-2.2,1.5-3.8c-0.6-1.4-2.2-1.9-3.7-1.2c-1.4,0.6-2.8,1.3-4.1,2.1c-1.3,0.7-1.7,1.8-1.3,3.1
				C49.6,132.4,50.8,133.2,52.3,133.2z M49.7,177.5c-0.1-1.1-0.2-2.5-0.5-3.8c-0.3-1.7-1.5-2.6-3.1-2.4c-1.6,0.2-2.5,1.3-2.4,3.1
				c0.1,1.5,0.3,2.9,0.5,4.4c0.2,1.3,1.2,2.4,2.4,2.5c1.3,0.1,2.6-0.8,2.9-2.2C49.7,178.7,49.7,178.2,49.7,177.5z M47.2,136.1
				c-0.1-1.5-0.6-2.4-1.6-3c-0.9-0.5-2.1-0.3-2.9,0.6c-1.1,1.2-2.2,2.4-3.3,3.7c-1,1.1-0.8,2.9,0.4,3.8c1.2,1,2.7,0.8,3.7-0.3
				c1-1.1,2-2.1,2.9-3.2C46.8,137.1,47,136.4,47.2,136.1z M36.3,148.4c0,0.4,0,0.7,0.1,1.1c0.1,0.6,0.1,1.2,0.2,1.7
				c0.1,0.5,0.2,1.1,0.4,1.6c0.4,1.4,1.4,2.2,2.8,2c1.4-0.2,2.5-1.2,2.4-2.7c-0.1-1.7-0.2-3.4-0.5-5c-0.3-1.8-2.4-2.8-3.9-2
				C36.5,145.9,36.2,147.1,36.3,148.4z M47.5,187.8c0-1.6-0.8-2.8-2-3.1c-1.3-0.4-2.3,0.1-3.1,1.3c-0.7,1.2-1.5,2.4-2.2,3.5
				c-0.9,1.4-0.8,2.9,0.3,3.7c1.3,0.9,3,0.8,3.9-0.5c1-1.3,1.9-2.7,2.8-4.1C47.4,188.3,47.4,187.9,47.5,187.8z M71.6,124.1
				c0-1.8-1.6-3.1-3.3-2.7c-1.6,0.4-3.1,0.8-4.6,1.4c-1.5,0.5-2.1,2.1-1.6,3.6c0.5,1.4,1.8,2,3.3,1.6c1.4-0.4,2.8-0.8,4.2-1.3
				C70.8,126.2,71.6,125.2,71.6,124.1z M46.6,165.3c0,0,0-0.2,0-0.3c-0.6-1.8-1.2-3.7-2-5.5c-0.5-1.1-2.1-1.5-3.3-1.1
				c-1.2,0.5-2.1,1.9-1.7,3.1c0.6,1.7,1.2,3.4,1.9,5c0.5,1.1,1.8,1.7,2.9,1.4C45.6,167.6,46.5,166.5,46.6,165.3z M26.3,203.9
				c0-2-1.9-3.3-3.7-2.6c-1.6,0.6-3.2,1.3-4.7,2.1c-0.6,0.3-1.1,1.2-1.2,1.9c-0.2,2.2,1.8,3.6,3.9,2.8c1.4-0.6,2.7-1.3,4.1-1.9
				C25.8,205.7,26.2,204.8,26.3,203.9z M32.1,202.2c0.2-0.1,0.7-0.2,1.1-0.4c1.2-0.7,2.3-1.4,3.4-2.2c1.6-1,2-2.6,1.2-3.9
				c-0.9-1.4-2.5-1.7-4.2-0.7c-1.2,0.7-2.3,1.6-3.4,2.4c-1.1,0.8-1.6,2-1.2,3.1C29.4,201.5,30.6,202.3,32.1,202.2z M78.3,124.4
				c1.2-0.3,2.7-0.6,4.3-1c1.8-0.5,2.7-1.8,2.3-3.3c-0.4-1.5-1.9-2.3-3.6-2c-1.4,0.3-2.8,0.7-4.2,1c-1.5,0.4-2.3,1.7-2.1,3.1
				C75.2,123.4,76.5,124.4,78.3,124.4z M10.4,206c-0.7,0.2-1.8,0.5-2.8,0.9c-1.3,0.5-2,1.9-1.6,3.2c0.4,1.4,1.8,2.2,3.2,1.9
				c1-0.2,1.9-0.5,2.8-0.9c1.2-0.5,1.8-1.8,1.5-3C13.1,206.8,12.1,206,10.4,206z M93.5,115.8c-0.1,0-0.3,0-0.5,0
				c-0.8,0.1-1.6,0.3-2.4,0.4c-1.4,0.3-2.2,1.7-2,3c0.2,1.5,1.4,2.4,2.8,2.3c0.9-0.1,1.9-0.3,2.8-0.5c1.4-0.4,2.2-1.6,1.9-3.1
				C96,116.7,94.9,115.8,93.5,115.8z"/>
			<path fill="none" d="M114.3,115.4c1.7,1.5,3.4,2.9,5.1,4.4c0.6,0.5,1.2,1,1.8,1.5c1.3,1.1,1.5,2.8,0.5,4c-1,1.2-2.7,1.3-3.9,0.2
				c-2.3-1.9-4.6-3.9-7-5.9c-0.9,1.1-1.8,2.1-2.7,3.2c-1,1.2-2,2.4-3.1,3.6c-1.2,1.4-2.8,1.6-4.1,0.6c-1.2-1-1.3-2.7-0.1-4.1
				c1.9-2.3,3.9-4.5,5.8-6.8c-2.3-1.9-4.5-3.9-6.7-5.8c-1.4-1.2-1.7-2.9-0.7-4.1c1.1-1.3,2.7-1.3,4.2,0c2.2,1.9,4.4,3.8,6.7,5.7
				c0.3-0.3,0.6-0.6,0.8-0.9c1.7-1.9,3.3-3.9,5-5.8c1.3-1.5,2.9-1.7,4.1-0.6c1.2,1.1,1.2,2.7,0,4.1c-1.7,2-3.4,4-5.1,5.9
				C114.8,114.8,114.6,115,114.3,115.4z"/>
			<path fill="none" d="M52.3,133.2c-1.6,0-2.7-0.8-3-2c-0.4-1.3,0-2.4,1.3-3.1c1.3-0.8,2.7-1.5,4.1-2.1c1.6-0.7,3.1-0.1,3.7,1.2
				c0.7,1.6,0.1,3-1.5,3.8c-1.2,0.6-2.3,1.2-3.5,1.8C53,133.1,52.5,133.2,52.3,133.2z"/>
			<path fill="none" d="M49.7,177.5c0,0.7,0,1.1-0.1,1.6c-0.3,1.3-1.6,2.3-2.9,2.2c-1.2-0.1-2.3-1.1-2.4-2.5
				c-0.2-1.4-0.3-2.9-0.5-4.4c-0.1-1.8,0.7-2.9,2.4-3.1c1.6-0.2,2.8,0.7,3.1,2.4C49.5,175.1,49.6,176.4,49.7,177.5z"/>
			<path fill="none" d="M47.2,136.1c-0.2,0.3-0.5,1-0.9,1.6c-0.9,1.1-1.9,2.1-2.9,3.2c-1.1,1.2-2.6,1.3-3.7,0.3
				c-1.1-0.9-1.3-2.7-0.4-3.8c1.1-1.3,2.2-2.5,3.3-3.7c0.8-0.9,2-1.1,2.9-0.6C46.7,133.6,47.2,134.5,47.2,136.1z"/>
			<path fill="none" d="M36.3,148.4c-0.1-1.3,0.2-2.5,1.5-3.2c1.5-0.8,3.6,0.2,3.9,2c0.3,1.7,0.4,3.3,0.5,5c0.1,1.4-1,2.5-2.4,2.7
				c-1.4,0.2-2.5-0.6-2.8-2c-0.1-0.5-0.3-1.1-0.4-1.6c-0.1-0.6-0.2-1.2-0.2-1.7C36.3,149.1,36.3,148.8,36.3,148.4z"/>
			<path fill="none" d="M47.5,187.8c0,0.1-0.1,0.5-0.3,0.9c-0.9,1.4-1.8,2.8-2.8,4.1c-1,1.3-2.7,1.4-3.9,0.5
				c-1.1-0.8-1.2-2.3-0.3-3.7c0.8-1.2,1.5-2.4,2.2-3.5c0.8-1.2,1.8-1.7,3.1-1.3C46.7,185,47.5,186.1,47.5,187.8z"/>
			<path fill="none" d="M71.6,124.1c0,1.2-0.8,2.2-2,2.6c-1.4,0.5-2.8,0.9-4.2,1.3c-1.5,0.4-2.8-0.2-3.3-1.6
				c-0.5-1.5,0.1-3.1,1.6-3.6c1.5-0.5,3.1-1,4.6-1.4C70.1,120.9,71.7,122.3,71.6,124.1z"/>
			<path fill="none" d="M46.6,165.3c-0.1,1.2-1,2.4-2.1,2.6c-1.1,0.3-2.5-0.3-2.9-1.4c-0.7-1.6-1.3-3.3-1.9-5
				c-0.4-1.2,0.5-2.6,1.7-3.1c1.1-0.4,2.8,0,3.3,1.1c0.8,1.8,1.3,3.6,2,5.5C46.6,165.1,46.6,165.2,46.6,165.3z"/>
			<path fill="none" d="M26.3,203.9c0,0.9-0.5,1.8-1.6,2.3c-1.4,0.6-2.7,1.3-4.1,1.9c-2.1,0.8-4.1-0.6-3.9-2.8
				c0.1-0.7,0.6-1.6,1.2-1.9c1.5-0.9,3.1-1.5,4.7-2.1C24.4,200.6,26.3,201.8,26.3,203.9z"/>
			<path fill="none" d="M32.1,202.2c-1.5,0-2.7-0.8-3-1.7c-0.4-1.2,0.1-2.4,1.2-3.1c1.1-0.8,2.3-1.6,3.4-2.4c1.6-1,3.3-0.7,4.2,0.7
				c0.8,1.3,0.4,2.9-1.2,3.9c-1.1,0.7-2.3,1.5-3.4,2.2C32.8,202.1,32.3,202.2,32.1,202.2z"/>
			<path fill="none" d="M78.3,124.4c-1.8,0-3.1-1-3.3-2.1c-0.2-1.5,0.6-2.7,2.1-3.1c1.4-0.4,2.8-0.7,4.2-1c1.6-0.4,3.2,0.5,3.6,2
				c0.4,1.5-0.5,2.8-2.3,3.3C81,123.7,79.5,124.1,78.3,124.4z"/>
			<path fill="none" d="M10.4,206c1.7,0,2.7,0.9,3,2.1c0.3,1.2-0.3,2.5-1.5,3c-0.9,0.4-1.9,0.7-2.8,0.9c-1.4,0.3-2.8-0.5-3.2-1.9
				c-0.4-1.3,0.3-2.7,1.6-3.2C8.6,206.5,9.7,206.2,10.4,206z"/>
			<path fill="none" d="M93.5,115.8c1.4,0,2.6,0.9,2.7,2.2c0.2,1.5-0.5,2.8-1.9,3.1c-0.9,0.2-1.9,0.4-2.8,0.5
				c-1.5,0.1-2.6-0.8-2.8-2.3c-0.2-1.3,0.6-2.7,2-3c0.8-0.2,1.6-0.3,2.4-0.4C93.2,115.8,93.4,115.8,93.5,115.8z"/>
		</g>
	</g>
</g>
</svg>
