<?xml version="1.0" encoding="utf-8"?>
<!-- Generator: Adobe Illustrator 18.0.0, SVG Export Plug-In . SVG Version: 6.00 Build 0)  -->
<!DOCTYPE svg PUBLIC "-//W3C//DTD SVG 1.0//EN" "http://www.w3.org/TR/2001/REC-SVG-20010904/DTD/svg10.dtd">
<svg version="1.0" xmlns="http://www.w3.org/2000/svg" xmlns:xlink="http://www.w3.org/1999/xlink" x="0px" y="0px"
	 viewBox="0 0 181.6 226.2" enable-background="new 0 0 181.6 226.2" xml:space="preserve">
<g id="Right_Arm">
	<g id="Hand_1_">
	</g>
</g>
<g id="Left_Arm">
	<g id="Hand">
	</g>
</g>
<g id="Hat">
	<g id="Grey_Band">
	</g>
</g>
<g id="Body">
	<g id="Pants">
	</g>
	<g id="Jacked_Edge">
	</g>
	<g id="Grey_Shirt">
	</g>
</g>
<g id="Right_Leg">
	<g id="Shoe_1_">
	</g>
	<g id="Cuff_1_">
	</g>
</g>
<g id="Left_Leg">
	<g id="Shoe">
	</g>
	<g id="Leg">
	</g>
</g>
<g id="Eyes">
	<g id="Eye">
	</g>
</g>
<g id="Eyebrows">
	<g id="Eyebrow">
	</g>
</g>
<g id="Layer_27">
</g>
<g id="Nose">
</g>
<g id="Mouth">
</g>
<g id="Newspaper_Inner_Paper">
</g>
<g id="Head">
	<g id="Grey_Hair">
	</g>
	<g id="Newspaper_Main">
		<path fill="#32B98E" d="M166.6,226.5H15c-8.2,0-15-6.8-15-15V15C0,6.7,6.8,0,15,0h151.6c8.2,0,15,6.8,15,15v196.5
			C181.6,219.7,174.9,226.5,166.6,226.5z"/>
		<g>
			<path fill="#FFFFFF" d="M19.5,19.8v0.2c0,8.7-0.5,17.7,0,26.4c-0.8,0.8-5.9,0-6.9,0.3c0.7-9.2-0.6-18.5,0.3-27v-0.1
				c0.3,0,1.2,0.1,1.6,0.1c0.9,0,1.9,0.2,4.2,0.1H19.5z"/>
			<path fill="#FFFFFF" d="M27.9,29c2.1-1.5,5.5-1.9,7.6-0.1c1.6,1.4,0.5,12.3,0.8,17.6c-1.8,0.3-3,0.2-4.7,0.2
				c-0.2-2.3,0-6.1-0.2-8.8c-0.1-1.3-0.2-3.1-0.9-3.7c0,0-0.1,0-0.2-0.1c-0.8-0.4-3.4-0.7-3.6,2.1c-0.2,3.5,0.4,6.8,0,10.2v0.2
				c-1.7,0.5-2.3,0-4.7,0.2c0-6.2-0.2-12.3,0-19c1.2,0.1,1.4,0.1,2.7,0c0.4,0,2.3-0.4,2.3,0c0.1,0.9,0,1.3,0.1,2
				C27.2,29.4,27.6,29.2,27.9,29z"/>
			<path fill="#FFFFFF" d="M46.3,46.3c-1.7-0.2-3.6,0.3-4.9,0.1c-0.3-1.9-0.1-11.2-0.1-13.5c-0.8,0-1.7,0-2.7,0l-0.1-4.6
				c1.1,0,1.9,0,2.7,0c-0.2-2.5,0.5-6.3,3.9-7.4c2.1-0.7,4.8-0.8,7.1-0.7c0.5,1.6,0.2,3.7,0,5.1c-1.2-0.1-3.3,0.3-4.8,0.5
				c-1.2,0.2-1.4,1.3-1.1,2.6h5.8c-0.1,0.6,0,1,0,1.7c0,1.1,0,1-0.2,3c-2.6-0.2-4.2-0.3-5.7-0.3v8.3V46.3z"/>
			<path fill="#FFFFFF" d="M60.5,27c1,0.1,1.9-0.1,3,0c1.6,0.1,3.2,0.6,4.2,1.6c1.4,1,1.4,4.2,1.6,7.5c-0.1,3-0.2,7.9-1.2,8.9
				c-1.7,2.5-5.9,1.7-8.8,1.7C58,46.5,56.9,46,56,45.1c-2.7-2.4-1.6-7.6-1.9-10.9c0-0.9,0-1.8,0.2-2.7c0-0.6,0.5-1.7,0.6-2.2
				C55.6,27.6,58.1,27,60.5,27z M59.2,34.4c-0.2,1.6-0.1,3.2-0.2,4.9c-0.1,2.3,3,2.4,4.4,1.7c0.4-0.2,0.7-0.6,0.9-1.3
				c0.2-1.6,0.4-3.3,0.1-4.8c-0.3-1.8-1.5-2.7-3.5-2.2c-0.5,0.2-0.9,0.4-1.3,0.8C59.4,33.8,59.3,34,59.2,34.4z"/>
			<path fill="#FFFFFF" d="M79.7,28.1c1.9-0.6,5.2-0.6,5.2-0.5c0,3.5-0.1,5.1,0,6.7l-0.3-0.1c-0.3-0.1-0.5-0.2-0.8-0.3
				c-0.6-0.2-1.4-0.3-1.4-0.3c-2.7-0.3-4.7-0.2-4.6,2.6c0.1,3.5,0.2,6.2,0.2,10v0.2c-1.7,0.5-2.7,0-5.1,0.2c0-6.2-0.2-12.3,0-19
				c1.2,0.1,1.4,0.1,2.7,0c0.4,0,2.5-0.3,2.5,0c0,0.8,0,0.6,0,1.3C78.1,28.7,79,28.4,79.7,28.1z"/>
			<path fill="#FFFFFF" d="M92.5,29c2.1-1.5,5.5-1.9,7.6-0.1c0.1,0.1,0.3,0.3,0.4,0.6c0.3-0.2,0.6-0.3,0.9-0.5
				c2.1-1.5,5.5-1.9,7.6-0.1c1.6,1.4,0.5,12.3,0.8,17.6c-1.8,0.3-3,0.2-4.7,0.2c-0.2-2.3,0-6.1-0.2-8.8c-0.1-1.3-0.2-3.1-0.9-3.7
				c0,0-0.1,0-0.2-0.1c-0.6-0.3-1.9-0.5-2.8,0.3c0.1,4-0.3,9.1-0.1,12.2c-1.8,0.3-3,0.2-4.7,0.2c-0.2-2.3,0-6.1-0.2-8.8
				c-0.1-1.3-0.2-3.1-0.9-3.7c0,0-0.1,0-0.2-0.1c-0.8-0.4-3.4-0.7-3.6,2.1c-0.2,3.5,0.4,6.8,0,10.2v0.2c-1.7,0.5-2.3,0-4.7,0.2
				c0-6.2-0.2-12.3,0-19c1.2,0.1,1.4,0.1,2.7,0c0.4,0,2.3-0.4,2.3,0c0.1,0.9,0,1.3,0.1,2C91.8,29.4,92.3,29.2,92.5,29z"/>
			<path fill="#FFFFFF" d="M127.8,28.5v0.4c-0.2,5.5,0.3,10.7-0.1,16.1c0,0.6,0.1,1.4-0.5,1.6h-0.5c-0.8,0-1.7-0.1-2.5-0.1
				c-0.6,0-1.1,0.1-1.6,0.1c-0.3-0.1-0.5-0.4-0.5-0.8c0-0.6,0.2-0.8,0.2-1.3c-1.2,1.2-3.2,2.2-5,2.2c-3.9,0-5.6-6.1-5.6-10.2
				c0-5.1,2.8-8.7,6.4-8.8c1.8,0,3.2,0,3.9,1.7c0-0.8,0.2-1.3,0.2-1.9c0-0.1,1.5,0,1.8,0c0.9,0,2.1,0.1,3.7,0.2
				C127.8,27.9,127.8,28.2,127.8,28.5z M116.5,37.1c0,2.3,1.3,4.1,3.4,4.1c2.5,0,2.4-1.7,2.4-4.6c0-3.5,0.1-4-2-4s-3.3,1.2-3.5,2.4
				C116.5,35.8,116.5,36.5,116.5,37.1z"/>
			<path fill="#FFFFFF" d="M138,25.6c0,0.6,0,1.4,0,2.1c1.6,0,3.2-0.2,5.7-0.3c0.7,0.8,0,3.4,0.2,4.7h-5.9c0,2.7,0,5.4,0,7.7
				c1,1.4,4.1,1.6,5.9,1.5c0.2,1.4,0.5,3.6,0,5.1c-4,0.2-9.1-0.3-10.4-3.3c-0.6-3.9-0.6-7.2-0.6-10.9c-0.8,0-1.7,0-2.7,0l0.1-4.6
				c1,0,1.9,0,2.7,0c0-2.2-0.2-5.4,0-7.3c1.3-0.2,3.2,0.3,4.9,0.1V25.6z"/>
			<path fill="#FFFFFF" d="M152.9,27.4v0.1c0,6.1-0.4,12.7,0,18.8c-0.5,0.6-4.7,0-5.4,0.2c0.5-6.4-0.4-13.2,0.2-19.2v0
				c0.2,0,0.8,0,1.1,0c0.6,0,1.8,0.1,3.5,0.1H152.9z M152.7,19.2c0,0.6,0.1,3.3,0.1,4.9c-0.5,0.7-3.2,0.2-5.1,0.3
				c0-1.5-0.2-2.9-0.2-5.2L152.7,19.2z"/>
			<path fill="#FFFFFF" d="M160.1,37.6c0,1.5,0,2.4,0.6,3.3c1.2,2.4,4.9,2.4,4.7-1.7c1,0.1,3.7-0.2,4.8,0.1
				c-0.2,2.6-0.3,5.3-1.1,5.9c-1.7,2.4-5.9,1.7-8.7,1.7c-0.7-0.1-1.4-0.3-2-0.7c-2.7-1.9-3.6-6.4-3.5-10.5c0.2-1.9,0.2-3.6,0.8-5.3
				c1.3-3,5.8-4.1,9.4-3.2c4.7,0.8,5.4,5.2,5.1,9.4c-1.1,0.3-8.6,0.6-10.2,0.3V37.6z M163.3,30.7c-2.4,0-3,1.1-3.2,2.5
				c-0.2,1.1-0.2,0.8,3.6,0.8c2.6,0,2.4,0.3,2.4-0.5c0-1-0.6-2-1.5-2.5C164.2,30.8,163.9,30.7,163.3,30.7z"/>
		</g>
		<g>
			<g>
				<path fill="#CE6146" d="M36.2,76.4c0.4,0,0.8,0,1.2,0c29.2,0,58.4,0,87.6,0c0.6,0,1.1,0,1.7,0c4.8,0.6,8.3,4.6,8.6,9.9
					c0,0.5,0,1,0,1.6c0,44.7,0,89.5,0,134.2c0,3.6-1,6.6-3.6,9.2c-1.4,1.4-2.9,2.1-4.8,2.3c-1.9,0-3.7,0.1-5.6,0.1
					c-27.8,0-55.6,0-83.4,0c-0.6,0-1.2,0-1.9-0.1c-0.5-1.8,0.2-3.5,0.3-5.2c0-1.1,0.2-2.2,0.2-3.3c0-46.7,0-93.4,0-140.1
					c0-2.2-0.3-4.5-0.5-6.7C36,77.6,35.8,77,36.2,76.4z"/>
				<path fill="#724F38" d="M36.2,76.4c0.7,2.4,0.9,4.8,0.9,7.2c0,47.5,0,95.1,0,142.6c0,2.4-0.1,4.9-0.9,7.2c-5,0-10,0-15,0.1
					c-0.9,0-1.1-0.5-1.2-1.2c-0.4-2.6-0.6-5.3-0.6-7.9c0-46.3,0-92.6,0-139c0-2.7,0.2-5.3,0.6-7.9c0.1-0.7,0.3-1.2,1.3-1.2
					C26.2,76.4,31.2,76.4,36.2,76.4z"/>
				<path fill="#CE6146" d="M151.5,76.4c0.8,0,1.6,0,2.3,0c6.8-0.5,10.5,5.3,10.7,10.4c0,0.4,0,0.8,0,1.2c0,44.7,0,89.4,0,134.1
					c0,3.4-0.9,6.4-3.3,8.8c-2.9,2.9-6.4,3.1-10.1,2.3c0.3-0.4,0.7-0.5,1-0.7c4.3-1.8,6.1-5.2,6.5-9.6c0.1-0.6,0-1.1,0-1.7
					c0-44.2,0-88.4,0-132.5c0-3.6-0.7-6.8-3.4-9.4c-0.8-0.8-1.8-1.4-2.8-1.9C152.1,77.2,151.5,77,151.5,76.4z"/>
				<path fill="#EAE1CF" d="M127,233.5c5.6-2.2,7.9-5.6,7.9-11.7c0-44.7,0-89.3,0-134c0-1.3-0.1-2.6-0.5-3.9
					c-1.2-3.9-3.6-6.6-7.7-7.5c1.1,0,2.1,0,3.2,0c5.3,0.8,7.9,5.7,8.2,10.6c0,0.6,0,1.2,0,1.9c0,44.2,0,88.4,0,132.6
					c0,3.6-0.8,6.9-3.4,9.6c-1.5,1.6-3.4,2.4-5.5,2.5C128.6,233.5,127.8,233.5,127,233.5z"/>
				<path fill="#EAE2D0" d="M143.3,76.4c1,0,1.9,0,2.9,0c2.5,0.4,4.4,1.7,5.8,3.8c1.8,2.5,2.4,5.3,2.4,8.2c0,10.3,0,20.6,0,30.9
					c0,33.9,0,67.8,0,101.8c0,2.4-0.3,4.8-1.4,7c-1.6,3.1-3.7,5.4-7.4,5.5c-0.6,0-1.3,0-1.9,0c0-0.6,0.6-0.8,1-1.1
					c4.1-2,5.7-5.5,6-9.9c0-0.5,0-1,0-1.6c0-44,0-88.1,0-132.1c0-1.8-0.1-3.5-0.7-5.2c-0.9-2.7-2.5-4.7-5.1-6
					c-0.5-0.2-1-0.4-1.4-0.7C143.3,76.7,143.3,76.6,143.3,76.4z"/>
				<path fill="#EAE2D0" d="M134.6,233.5c-0.5,0-1.1,0-1.6,0c0.1-0.8,0.7-1,1.2-1.3c3.8-2.1,5.5-5.4,5.5-9.6c0-16.6,0-33.2,0-49.8
					c0-28.4,0-56.8,0-85.1c0-2.7-0.6-5-2.2-7.2c-1.1-1.4-2.4-2.4-4-3.1c-0.5-0.2-1.3-0.2-1.4-1c1.1,0,2.1,0,3.2,0
					c4.7,1,7.9,4.9,8.2,9.9c0,0.6,0,1.1,0,1.7c0,44.7,0,89.3,0,134c0,1.8-0.2,3.6-0.9,5.3C141,230.8,138.8,233.4,134.6,233.5z"/>
				<path fill="#EAE1CF" d="M151.5,76.4c5.5,2,7.7,6.2,7.7,11.8c0,44.5,0,88.9,0,133.4c0,3.6-0.9,6.9-3.7,9.5
					c-1.2,1.1-2.6,2-4.4,2.1c-0.2,0.1-0.5,0.2-0.7,0.3c-0.4-0.2-1-0.4-0.4-1c4.3-2.5,5.9-6.3,5.9-11.1c0-44.5,0-88.9,0-133.4
					c0-3.5-1-6.6-3.6-9c-0.8-0.7-1.7-1.3-2.8-1.7c-0.5-0.2-1.2-0.2-1.3-1C149.4,76.4,150.5,76.4,151.5,76.4z"/>
				<path fill="#C9C0AF" d="M134.6,233.5c4.9-1,7.2-4.3,8.2-8.8c0.1-0.5,0.1-1.1,0.1-1.7c0-45.4,0-90.8,0-136.1
					c0-4.5-2.9-8.6-7.1-10.2c-0.2-0.1-0.4-0.2-0.7-0.3c0.7,0,1.4,0,2.1,0c4.7,0.7,7.5,3.5,8.5,8.4c0.3,1.4,0.4,2.9,0.4,4.3
					c0,44,0,88,0,132c0,2.4-0.3,4.8-1.4,7c-1.4,2.8-3.3,4.9-6.6,5.4C137.1,233.5,135.9,233.5,134.6,233.5z"/>
				<path fill="#C9C0AF" d="M143.4,76.6c3.6,0.7,6.7,4,7.5,8.1c0.2,1.2,0.3,2.5,0.3,3.7c0,44.6,0,89.2,0,133.8
					c0,4.2-1.6,7.7-5.2,10.1c-0.7,0.5-1.7,0.5-2.3,1.2c-1.2,0-2.5,0-3.7,0c0-0.6,0.6-0.6,1-0.8c4.2-1.4,6.8-5,6.9-9.4
					c0-0.6,0-1.2,0-1.9c0-44.2,0-88.5,0-132.7c0-4.9-1.4-8.8-5.8-11.3c-0.1-0.1-0.2-0.2-0.3-0.3C142.1,76.4,142.1,76.4,143.4,76.6z"
					/>
				<path fill="#EAE2D0" d="M141.8,76.9c3.7,1.3,6.5,5.4,6.5,9.4c0,9.8,0,19.7,0,29.5c0,35.8,0,71.5,0,107.3c0,4.4-2,7.7-6,9.8
					c-0.8,0.4-1.7,0.1-2.3,0.7c-0.5,0-1.1,0-1.6,0c2.8-1.3,5.1-3.1,6.4-6c0.7-1.8,1.1-3.6,1.1-5.4c0-44.6,0.1-89.3,0-133.9
					c0-4.7-1.6-8.9-6.4-11c-0.6-0.3-1.3-0.5-2-0.7c0.9,0,1.9,0,2.8,0C140.7,76.7,141.5,76.2,141.8,76.9z"/>
				<path fill="#C9C0AF" d="M132.1,76.4c4.4,1.1,6.9,4.1,8,8.4c0.2,0.8,0.2,1.7,0.2,2.5c0,45.1,0,90.3,0,135.4
					c0,4.7-1.9,8.2-6.3,10.2c-0.3,0.1-0.6,0.4-0.9,0.6c-1.2,0-2.5,0-3.7,0c6-2,8.4-5.5,8.4-12c0-44.5,0-89.1,0-133.6
					c0-3.6-1-6.8-3.9-9.3c-1.2-1-2.6-1.4-3.9-2.2C130.7,76.3,131.4,76.3,132.1,76.4z"/>
				<path fill="#C9C0AF" d="M148.3,76.4c4.5,1.2,7,4.3,8,8.8c0.1,0.6,0.1,1.1,0.1,1.7c0,45.4,0,90.8,0,136.2c0,4.4-2.8,8.6-6.6,9.8
					c-1-0.5-0.1-0.9,0.2-1.2c0.9-0.8,1.6-1.6,2.2-2.6c1.4-2.1,1.9-4.3,1.8-6.8c0-0.5,0-0.9,0-1.4c0-44.6,0-89.2,0-133.8
					c0-2.8-1-5.1-2.7-7.3c-1.5-1.5-3.3-2.5-5.3-3.4C146.9,76.3,147.6,76.3,148.3,76.4z"/>
				<path fill="#C9C0AF" d="M151.5,79.8c1.7,0.8,1.7,2.7,2.5,4.1c0.7,1.2,0.4,2.6,0.4,4c0,44.5,0,89,0,133.5c0,2,0.1,3.9-0.6,5.8
					c-0.6,1.7-1.7,3.1-3.1,4.3c-0.4,0.3-1.3,0.5-0.7,1.4c0.2,0.2,0.4,0.4,0.6,0.6c-1.6,0-3.3,0-4.9,0c6.3-1.4,8.4-7.1,8.4-12
					c0-43.2,0-86.5,0-129.7C154,87.5,153.9,83.4,151.5,79.8z"/>
				<path fill="#D5CCBB" d="M141.8,76.9c-0.5-0.4-1.1-0.1-1.6-0.6c1,0,2.1,0,3.1,0c0,0.1,0,0.2,0,0.3
					C142.8,76.7,142.2,76.4,141.8,76.9z"/>
			</g>
			<g>
				<path fill="#E8CDB9" d="M77.3,133l3.7,0.1c3.2,0.2,5.8,0.3,7.8,0.3c1.9,0,3.3,0,4.2,0h2.2v0.4l-0.7,43.5
					c0,4.5,0.2,11.7,0.5,21.6c-0.1,0.6-2.1,0.9-6.1,0.9l-11.2-0.1c-0.7,0-1.1,0-1.3,0c0.3-4.3,0.5-10.1,0.5-17.2l-0.4-30.5
					c0-8.2,0.2-14.5,0.7-18.7V133z M95.1,121.9c-0.5,0.8-2.4,1.2-5.5,1.2l-10.4-0.3c-0.7,0-1.3,0-1.8,0l-0.5-15.5c0-0.9,0-1.8,0-2.6
					l17.9,0.4L95.1,121.9z"/>
			</g>
		</g>
	</g>
</g>
</svg>
