<?xml version="1.0" encoding="utf-8"?>
<!-- Generator: Adobe Illustrator 18.0.0, SVG Export Plug-In . SVG Version: 6.00 Build 0)  -->
<!DOCTYPE svg PUBLIC "-//W3C//DTD SVG 1.1//EN" "http://www.w3.org/Graphics/SVG/1.1/DTD/svg11.dtd">
<svg version="1.1" xmlns="http://www.w3.org/2000/svg" xmlns:xlink="http://www.w3.org/1999/xlink" x="0px" y="0px"
	 viewBox="0 0 181.6 226.2" enable-background="new 0 0 181.6 226.2" xml:space="preserve">
<g id="Right_Arm">
	<g id="Hand_1_">
	</g>
</g>
<g id="Left_Arm">
	<g id="Hand">
	</g>
</g>
<g id="Hat">
	<g id="Grey_Band">
	</g>
</g>
<g id="Body">
	<g id="Pants">
	</g>
	<g id="Jacked_Edge">
	</g>
	<g id="Grey_Shirt">
	</g>
</g>
<g id="Right_Leg">
	<g id="Shoe_1_">
	</g>
	<g id="Cuff_1_">
	</g>
</g>
<g id="Left_Leg">
	<g id="Shoe">
	</g>
	<g id="Leg">
	</g>
</g>
<g id="Eyes">
	<g id="Eye">
	</g>
</g>
<g id="Eyebrows">
	<g id="Eyebrow">
	</g>
</g>
<g id="Layer_27">
</g>
<g id="Nose">
</g>
<g id="Mouth">
</g>
<g id="Newspaper_Inner_Paper">
</g>
<g id="Head">
	<g id="Grey_Hair">
	</g>
	<g id="Newspaper_Main">
		<path fill="#32B98E" d="M166.6,226.5H15c-8.2,0-15-6.8-15-15V15C0,6.7,6.8,0,15,0h151.6c8.2,0,15,6.8,15,15v196.5
			C181.6,219.7,174.9,226.5,166.6,226.5z"/>
		<text transform="matrix(1 0 0 1 10.1786 46.4857)" fill="#FFFFFF" font-family="'LondrinaSolid-Regular'" font-size="38">Informatie</text>
		<g>
			<g>
				<path fill="#CE6146" d="M36.2,69.1c0.4,0,0.8,0,1.2,0c29.2,0,58.4,0,87.6,0c0.6,0,1.1,0,1.7,0c4.8,0.6,8.3,4.6,8.6,9.9
					c0,0.5,0,1,0,1.6c0,44.7,0,89.5,0,134.2c0,3.6-1,6.6-3.6,9.2c-1.4,1.4-2.9,2.1-4.8,2.3c-1.9,0-3.7,0.1-5.6,0.1
					c-27.8,0-55.6,0-83.4,0c-0.6,0-1.2,0-1.9-0.1c-0.5-1.8,0.2-3.5,0.3-5.2c0-1.1,0.2-2.2,0.2-3.3c0-46.7,0-93.4,0-140.1
					c0-2.2-0.3-4.5-0.5-6.7C36,70.3,35.8,69.6,36.2,69.1z"/>
				<path fill="#724F38" d="M36.2,69.1c0.7,2.4,0.9,4.8,0.9,7.2c0,47.5,0,95.1,0,142.6c0,2.4-0.1,4.9-0.9,7.2c-5,0-10,0-15,0.1
					c-0.9,0-1.1-0.5-1.2-1.2c-0.4-2.6-0.6-5.3-0.6-7.9c0-46.3,0-92.6,0-139c0-2.7,0.2-5.3,0.6-7.9c0.1-0.7,0.3-1.2,1.3-1.2
					C26.2,69,31.2,69,36.2,69.1z"/>
				<path fill="#CE6146" d="M151.5,69c0.8,0,1.6,0,2.3,0c6.8-0.5,10.5,5.3,10.7,10.4c0,0.4,0,0.8,0,1.2c0,44.7,0,89.4,0,134.1
					c0,3.4-0.9,6.4-3.3,8.8c-2.9,2.9-6.4,3.1-10.1,2.3c0.3-0.4,0.7-0.5,1-0.7c4.3-1.8,6.1-5.2,6.5-9.6c0.1-0.6,0-1.1,0-1.7
					c0-44.2,0-88.4,0-132.5c0-3.6-0.7-6.8-3.4-9.4c-0.8-0.8-1.8-1.4-2.8-1.9C152.1,69.8,151.5,69.7,151.5,69z"/>
				<path fill="#EAE1CF" d="M127,226.1c4-1.6,6.4-3.8,7.4-7.2c0.4-1.3,0.6-2.8,0.6-4.5c0-44.7,0-89.3,0-134c0-1.3-0.1-2.6-0.5-3.9
					c-1.2-3.9-3.6-6.6-7.7-7.5c1.1,0,2.1,0,3.2,0c5.3,0.8,7.9,5.7,8.2,10.6c0,0.6,0,1.2,0,1.9c0,44.2,0,88.4,0,132.6
					c0,1.7-0.2,3.3-0.6,4.8c-0.5,1.7-1.4,3.3-2.7,4.8c-1.5,1.6-3.4,2.4-5.5,2.5C128.6,226.1,127.8,226.1,127,226.1z"/>
				<path fill="#EAE2D0" d="M143.3,69c1,0,1.9,0,2.9,0c2.5,0.4,4.4,1.7,5.8,3.8c1.8,2.5,2.4,5.3,2.4,8.2c0,10.3,0,20.6,0,30.9
					c0,33.9,0,67.8,0,101.8c0,2.4-0.3,4.8-1.4,7c-1.6,3.1-3.7,5.4-7.4,5.5c-0.6,0-1.3,0-1.9,0c0-0.6,0.6-0.8,1-1.1
					c4.1-2,5.7-5.5,6-9.9c0-0.5,0-1,0-1.6c0-44,0-88.1,0-132.1c0-1.8-0.1-3.5-0.7-5.2c-0.9-2.7-2.5-4.7-5.1-6
					c-0.5-0.2-1-0.4-1.4-0.7C143.3,69.4,143.3,69.2,143.3,69z"/>
				<path fill="#EAE2D0" d="M134.6,226.1c-0.5,0-1.1,0-1.6,0c0.1-0.8,0.7-1,1.2-1.3c3.8-2.1,5.5-5.4,5.5-9.6c0-16.6,0-33.2,0-49.8
					c0-28.4,0-56.8,0-85.1c0-2.7-0.6-5-2.2-7.2c-1.1-1.4-2.4-2.4-4-3.1c-0.5-0.2-1.3-0.2-1.4-1c1.1,0,2.1,0,3.2,0
					c4.7,1,7.9,4.9,8.2,9.9c0,0.6,0,1.1,0,1.7c0,44.7,0,89.3,0,134c0,1.8-0.2,3.6-0.9,5.3C141,223.4,138.8,226.1,134.6,226.1z"/>
				<path fill="#EAE1CF" d="M151.5,69c5.5,2,7.7,6.2,7.7,11.8c0,44.5,0,88.9,0,133.4c0,3.6-0.9,6.9-3.7,9.5c-1.2,1.1-2.6,2-4.4,2.1
					c-0.2,0.1-0.5,0.2-0.7,0.3c-0.4-0.2-1-0.4-0.4-1c4.3-2.5,5.9-6.3,5.9-11.1c0-44.5,0-88.9,0-133.4c0-3.5-1-6.6-3.6-9
					c-0.8-0.7-1.7-1.3-2.8-1.7c-0.5-0.2-1.2-0.2-1.3-1C149.4,69,150.5,69,151.5,69z"/>
				<path fill="#C9C0AF" d="M134.6,226.1c4.9-1,7.2-4.3,8.2-8.8c0.1-0.5,0.1-1.1,0.1-1.7c0-45.4,0-90.8,0-136.1
					c0-4.5-2.9-8.6-7.1-10.2c-0.2-0.1-0.4-0.2-0.7-0.3c0.7,0,1.4,0,2.1,0c4.7,0.7,7.5,3.5,8.5,8.4c0.3,1.4,0.4,2.9,0.4,4.3
					c0,44,0,88,0,132c0,2.4-0.3,4.8-1.4,7c-1.4,2.8-3.3,4.9-6.6,5.4C137.1,226.1,135.9,226.1,134.6,226.1z"/>
				<path fill="#C9C0AF" d="M143.4,69.3c3.6,0.7,6.7,4,7.5,8.1c0.2,1.2,0.3,2.5,0.3,3.7c0,44.6,0,89.2,0,133.8
					c0,4.2-1.6,7.7-5.2,10.1c-0.7,0.5-1.7,0.5-2.3,1.2c-1.2,0-2.5,0-3.7,0c0-0.6,0.6-0.6,1-0.8c4.2-1.4,6.8-5,6.9-9.4
					c0-0.6,0-1.2,0-1.9c0-44.2,0-88.5,0-132.7c0-4.9-1.4-8.8-5.8-11.3c-0.1-0.1-0.2-0.2-0.3-0.3C142.1,69.1,142.1,69,143.4,69.3z"/>
				<path fill="#EAE2D0" d="M141.8,69.6c3.7,1.3,6.5,5.4,6.5,9.4c0,9.8,0,19.7,0,29.5c0,35.8,0,71.5,0,107.3c0,4.4-2,7.7-6,9.8
					c-0.8,0.4-1.7,0.1-2.3,0.7c-0.5,0-1.1,0-1.6,0c2.8-1.3,5.1-3.1,6.4-6c0.7-1.8,1.1-3.6,1.1-5.4c0-44.6,0.1-89.3,0-133.9
					c0-4.7-1.6-8.9-6.4-11c-0.6-0.3-1.3-0.5-2-0.7c0.9,0,1.9,0,2.8,0C140.7,69.3,141.5,68.9,141.8,69.6z"/>
				<path fill="#C9C0AF" d="M132.1,69c4.4,1.1,6.9,4.1,8,8.4c0.2,0.8,0.2,1.7,0.2,2.5c0,45.1,0,90.3,0,135.4c0,4.7-1.9,8.2-6.3,10.2
					c-0.3,0.1-0.6,0.4-0.9,0.6c-1.2,0-2.5,0-3.7,0c4.3-1.5,6.8-3.7,7.8-7.2c0.4-1.4,0.6-2.9,0.6-4.7c0-44.5,0-89.1,0-133.6
					c0-3.6-1-6.8-3.9-9.3c-1.2-1-2.6-1.4-3.9-2.2C130.7,69,131.4,69,132.1,69z"/>
				<path fill="#C9C0AF" d="M148.3,69c4.5,1.2,7,4.3,8,8.8c0.1,0.6,0.1,1.1,0.1,1.7c0,45.4,0,90.8,0,136.2c0,4.4-2.8,8.6-6.6,9.8
					c-1-0.5-0.1-0.9,0.2-1.2c0.9-0.8,1.6-1.6,2.2-2.6c1.4-2.1,1.9-4.3,1.8-6.8c0-0.5,0-0.9,0-1.4c0-44.6,0-89.2,0-133.8
					c0-2.8-1-5.1-2.7-7.3c-1.5-1.5-3.3-2.5-5.3-3.4C146.9,69,147.6,69,148.3,69z"/>
				<path fill="#C9C0AF" d="M151.5,72.4c1.7,0.8,1.7,2.7,2.5,4.1c0.7,1.2,0.4,2.6,0.4,4c0,44.5,0,89,0,133.5c0,2,0.1,3.9-0.6,5.8
					c-0.6,1.7-1.7,3.1-3.1,4.3c-0.4,0.3-1.3,0.5-0.7,1.4c0.2,0.2,0.4,0.4,0.6,0.6c-1.6,0-3.3,0-4.9,0c6.3-1.4,8.4-7.1,8.4-12
					c0-43.2,0-86.5,0-129.7C154,80.2,153.9,76.1,151.5,72.4z"/>
				<path fill="#D5CCBB" d="M141.8,69.6c-0.5-0.4-1.1-0.1-1.6-0.6c1,0,2.1,0,3.1,0c0,0.1,0,0.2,0,0.3
					C142.8,69.4,142.2,69.1,141.8,69.6z"/>
			</g>
			<text transform="matrix(1 0 0 1 72.1594 192.2461)" fill="#E8CDB9" font-family="'LondrinaSolid-Regular'" font-size="131.6759">i</text>
		</g>
	</g>
</g>
</svg>
