<?xml version="1.0" encoding="utf-8"?>
<!-- Generator: Adobe Illustrator 18.0.0, SVG Export Plug-In . SVG Version: 6.00 Build 0)  -->
<!DOCTYPE svg PUBLIC "-//W3C//DTD SVG 1.1//EN" "http://www.w3.org/Graphics/SVG/1.1/DTD/svg11.dtd">
<svg version="1.1" xmlns="http://www.w3.org/2000/svg" xmlns:xlink="http://www.w3.org/1999/xlink" x="0px" y="0px"
	 viewBox="0 0 736.6 531.1" enable-background="new 0 0 736.6 531.1" xml:space="preserve">
<g id="Right_Arm">
	<g id="Hand_1_">
	</g>
</g>
<g id="Left_Arm">
	<g id="Hand">
	</g>
</g>
<g id="Hat">
	<g id="Grey_Band">
	</g>
</g>
<g id="Body">
	<g id="Pants">
	</g>
	<g id="Jacked_Edge">
	</g>
	<g id="Grey_Shirt">
	</g>
</g>
<g id="Right_Leg">
	<g id="Shoe_1_">
	</g>
	<g id="Cuff_1_">
	</g>
</g>
<g id="Left_Leg">
	<g id="Shoe">
	</g>
	<g id="Leg">
	</g>
</g>
<g id="Eyes">
	<g id="Eye">
	</g>
</g>
<g id="Eyebrows">
	<g id="Eyebrow">
	</g>
</g>
<g id="Layer_27">
</g>
<g id="Nose">
</g>
<g id="Mouth">
</g>
<g id="Newspaper_Inner_Paper">
</g>
<g id="Head">
	<g>
		<path fill="#137565" d="M185.6,344.4c4.4,76.8,181.7,64.8,328.8-8.9S711.1,123.7,694.1,89.7s-157.2-77-304.4-3.3
			S180.3,251.5,185.6,344.4z"/>
		<g>
			<defs>
				<path id="SVGID_9_" d="M185.6,344.4c4.4,76.8,181.7,64.8,328.8-8.9S711.1,123.7,694.1,89.7s-157.2-77-304.4-3.3
					S180.3,251.5,185.6,344.4z"/>
			</defs>
			<use xlink:href="#SVGID_9_"  overflow="visible" fill="#137565"/>
			<clipPath id="SVGID_2_">
				<use xlink:href="#SVGID_9_"  overflow="visible"/>
			</clipPath>
			<line clip-path="url(#SVGID_2_)" fill="#137565" x1="625.7" y1="229.1" x2="695" y2="252.2"/>
			<line clip-path="url(#SVGID_2_)" fill="#137565" x1="608.5" y1="237.7" x2="677.8" y2="260.8"/>
			<line clip-path="url(#SVGID_2_)" fill="#137565" x1="591.3" y1="246.4" x2="660.6" y2="269.4"/>
			<line clip-path="url(#SVGID_2_)" fill="#137565" x1="574.1" y1="255" x2="643.4" y2="278"/>
			<line clip-path="url(#SVGID_2_)" fill="#137565" x1="556.8" y1="263.6" x2="626.1" y2="286.7"/>
			<line clip-path="url(#SVGID_2_)" fill="#137565" x1="539.6" y1="272.2" x2="608.9" y2="295.3"/>
			<line clip-path="url(#SVGID_2_)" fill="#137565" x1="522.4" y1="280.9" x2="591.7" y2="303.9"/>
			<line clip-path="url(#SVGID_2_)" fill="#137565" x1="505.2" y1="289.5" x2="574.5" y2="312.5"/>
			<line clip-path="url(#SVGID_2_)" fill="#137565" x1="488" y1="298.1" x2="557.3" y2="321.2"/>
			<line clip-path="url(#SVGID_2_)" fill="#137565" x1="470.7" y1="306.7" x2="540" y2="329.8"/>
			<line clip-path="url(#SVGID_2_)" fill="#137565" x1="453.5" y1="315.4" x2="522.8" y2="338.4"/>
			<line clip-path="url(#SVGID_2_)" fill="#137565" x1="436.3" y1="324" x2="505.6" y2="347"/>
			<line clip-path="url(#SVGID_2_)" fill="#137565" x1="419.1" y1="332.6" x2="488.4" y2="355.7"/>
			<line clip-path="url(#SVGID_2_)" fill="#137565" x1="401.9" y1="341.2" x2="471.2" y2="364.3"/>
			<line clip-path="url(#SVGID_2_)" fill="#137565" x1="384.6" y1="349.8" x2="453.9" y2="372.9"/>
			<line clip-path="url(#SVGID_2_)" fill="#137565" x1="367.4" y1="358.5" x2="436.7" y2="381.5"/>
			<line clip-path="url(#SVGID_2_)" fill="#137565" x1="350.2" y1="367.1" x2="419.5" y2="390.1"/>
			<line clip-path="url(#SVGID_2_)" fill="#137565" x1="333" y1="375.7" x2="402.3" y2="398.8"/>
			<line clip-path="url(#SVGID_2_)" fill="#137565" x1="315.8" y1="384.3" x2="385.1" y2="407.4"/>
			<line clip-path="url(#SVGID_2_)" fill="#137565" x1="298.5" y1="393" x2="367.8" y2="416"/>
			<line clip-path="url(#SVGID_2_)" fill="#137565" x1="281.3" y1="401.6" x2="350.6" y2="424.6"/>
			<line clip-path="url(#SVGID_2_)" fill="#137565" x1="264.1" y1="410.2" x2="333.4" y2="433.3"/>
		</g>
		<g>
			<defs>
				<path id="SVGID_11_" d="M185.6,344.4c1.3,76.9,181.7,64.8,328.8-8.9S711.1,123.7,694.1,89.7s-157.2-77-304.4-3.3
					S184,249.7,185.6,344.4z"/>
			</defs>
			<use xlink:href="#SVGID_11_"  overflow="visible" fill="#137565"/>
			<clipPath id="SVGID_4_">
				<use xlink:href="#SVGID_11_"  overflow="visible"/>
			</clipPath>
			<path clip-path="url(#SVGID_4_)" fill="#137565" d="M703.8,91.5C701.4,90.8,677,117,677,117c0.7-29.8,28.3-41.4,28.3-41.4l8.2,10
				C713.6,85.7,710.9,97.5,703.8,91.5z"/>
		</g>
		<g>
			<defs>
				<path id="SVGID_13_" d="M185.6,344.4c1.3,76.9,181.7,64.8,328.8-8.9S711.8,124.9,694.1,89.7c-17.6-35.2-157.2-77-304.4-3.3
					S184,249.7,185.6,344.4z"/>
			</defs>
			<use xlink:href="#SVGID_13_"  overflow="visible" fill="#137565"/>
			<clipPath id="SVGID_6_">
				<use xlink:href="#SVGID_13_"  overflow="visible"/>
			</clipPath>
			<path clip-path="url(#SVGID_6_)" fill="#137565" d="M181,335.2c11.9-39.1,186.1-190.9,396.5-207c0,0-70-139.8-16-210.3
				c54-70.6-436.5,218.6-436.5,218.6S169.1,374.3,181,335.2z"/>
		</g>
		<path fill="#137565" d="M567.8,98.8l-126.4,22.1l8,25l19,37.9l19.7,22.7l93.9-79.6C581.9,126.8,567.8,117.1,567.8,98.8z"/>
		<path fill="#137565" d="M317.2,80l11.6,39.7l-1.9,15.8c0,0,45.4-40.3,118.9-61.8L317.2,80z"/>
		<circle fill="#137565" cx="635.4" cy="85.8" r="10"/>
		<path fill="#137565" d="M260.4,395.6c-97.5,17.8-126.2,108.1-126.2,108.1L58,351c21.4,19.3,107.1,12.6,127.3-22.5L260.4,395.6z"/>
		<g>
			<defs>
				<path id="SVGID_15_" d="M260.4,395.6c-97.5,17.8-126.2,108.1-126.2,108.1L58,351c21.4,19.3,107.1,12.6,127.3-22.5L260.4,395.6z"
					/>
			</defs>
			<use xlink:href="#SVGID_15_"  overflow="visible" fill="#137565"/>
			<clipPath id="SVGID_8_">
				<use xlink:href="#SVGID_15_"  overflow="visible"/>
			</clipPath>
			
				<rect x="30.5" y="305" transform="matrix(0.8941 -0.4478 0.4478 0.8941 -187.0648 82.2222)" clip-path="url(#SVGID_8_)" fill="#137565" width="99.7" height="263.5"/>
		</g>
	</g>
	<g id="Grey_Hair">
	</g>
	<g id="Newspaper_Main">
	</g>
	<g>
		<path fill="#33AEA6" d="M180.6,334.4c4.4,76.8,181.7,64.8,328.8-8.9S706.1,113.7,689.1,79.7s-157.2-77-304.4-3.3
			S175.3,241.5,180.6,334.4z"/>
		<g>
			<defs>
				<path id="SVGID_41_" d="M180.6,334.4c4.4,76.8,181.7,64.8,328.8-8.9S706.1,113.7,689.1,79.7s-157.2-77-304.4-3.3
					S175.3,241.5,180.6,334.4z"/>
			</defs>
			<clipPath id="SVGID_10_">
				<use xlink:href="#SVGID_41_"  overflow="visible"/>
			</clipPath>
			
				<line clip-path="url(#SVGID_10_)" fill="none" stroke="#269A8F" stroke-width="10" stroke-linecap="round" stroke-miterlimit="10" x1="620.7" y1="219.1" x2="690" y2="242.2"/>
			
				<line clip-path="url(#SVGID_10_)" fill="none" stroke="#269A8F" stroke-width="10" stroke-linecap="round" stroke-miterlimit="10" x1="603.5" y1="227.7" x2="672.8" y2="250.8"/>
			
				<line clip-path="url(#SVGID_10_)" fill="none" stroke="#269A8F" stroke-width="10" stroke-linecap="round" stroke-miterlimit="10" x1="586.3" y1="236.4" x2="655.6" y2="259.4"/>
			
				<line clip-path="url(#SVGID_10_)" fill="none" stroke="#269A8F" stroke-width="10" stroke-linecap="round" stroke-miterlimit="10" x1="569.1" y1="245" x2="638.4" y2="268"/>
			
				<line clip-path="url(#SVGID_10_)" fill="none" stroke="#269A8F" stroke-width="10" stroke-linecap="round" stroke-miterlimit="10" x1="551.8" y1="253.6" x2="621.1" y2="276.7"/>
			
				<line clip-path="url(#SVGID_10_)" fill="none" stroke="#269A8F" stroke-width="10" stroke-linecap="round" stroke-miterlimit="10" x1="534.6" y1="262.2" x2="603.9" y2="285.3"/>
			
				<line clip-path="url(#SVGID_10_)" fill="none" stroke="#269A8F" stroke-width="10" stroke-linecap="round" stroke-miterlimit="10" x1="517.4" y1="270.9" x2="586.7" y2="293.9"/>
			
				<line clip-path="url(#SVGID_10_)" fill="none" stroke="#269A8F" stroke-width="10" stroke-linecap="round" stroke-miterlimit="10" x1="500.2" y1="279.5" x2="569.5" y2="302.5"/>
			
				<line clip-path="url(#SVGID_10_)" fill="none" stroke="#269A8F" stroke-width="10" stroke-linecap="round" stroke-miterlimit="10" x1="483" y1="288.1" x2="552.3" y2="311.2"/>
			
				<line clip-path="url(#SVGID_10_)" fill="none" stroke="#269A8F" stroke-width="10" stroke-linecap="round" stroke-miterlimit="10" x1="465.7" y1="296.7" x2="535" y2="319.8"/>
			
				<line clip-path="url(#SVGID_10_)" fill="none" stroke="#269A8F" stroke-width="10" stroke-linecap="round" stroke-miterlimit="10" x1="448.5" y1="305.4" x2="517.8" y2="328.4"/>
			
				<line clip-path="url(#SVGID_10_)" fill="none" stroke="#269A8F" stroke-width="10" stroke-linecap="round" stroke-miterlimit="10" x1="431.3" y1="314" x2="500.6" y2="337"/>
			
				<line clip-path="url(#SVGID_10_)" fill="none" stroke="#269A8F" stroke-width="10" stroke-linecap="round" stroke-miterlimit="10" x1="414.1" y1="322.6" x2="483.4" y2="345.7"/>
			
				<line clip-path="url(#SVGID_10_)" fill="none" stroke="#269A8F" stroke-width="10" stroke-linecap="round" stroke-miterlimit="10" x1="396.9" y1="331.2" x2="466.2" y2="354.3"/>
			
				<line clip-path="url(#SVGID_10_)" fill="none" stroke="#269A8F" stroke-width="10" stroke-linecap="round" stroke-miterlimit="10" x1="379.6" y1="339.8" x2="448.9" y2="362.9"/>
			
				<line clip-path="url(#SVGID_10_)" fill="none" stroke="#269A8F" stroke-width="10" stroke-linecap="round" stroke-miterlimit="10" x1="362.4" y1="348.5" x2="431.7" y2="371.5"/>
			
				<line clip-path="url(#SVGID_10_)" fill="none" stroke="#269A8F" stroke-width="10" stroke-linecap="round" stroke-miterlimit="10" x1="345.2" y1="357.1" x2="414.5" y2="380.1"/>
			
				<line clip-path="url(#SVGID_10_)" fill="none" stroke="#269A8F" stroke-width="10" stroke-linecap="round" stroke-miterlimit="10" x1="328" y1="365.7" x2="397.3" y2="388.8"/>
			
				<line clip-path="url(#SVGID_10_)" fill="none" stroke="#269A8F" stroke-width="10" stroke-linecap="round" stroke-miterlimit="10" x1="310.8" y1="374.3" x2="380.1" y2="397.4"/>
			
				<line clip-path="url(#SVGID_10_)" fill="none" stroke="#269A8F" stroke-width="10" stroke-linecap="round" stroke-miterlimit="10" x1="293.5" y1="383" x2="362.8" y2="406"/>
			
				<line clip-path="url(#SVGID_10_)" fill="none" stroke="#269A8F" stroke-width="5" stroke-linecap="round" stroke-miterlimit="10" x1="276.3" y1="391.6" x2="345.6" y2="414.6"/>
			
				<line clip-path="url(#SVGID_10_)" fill="none" stroke="#269A8F" stroke-width="5" stroke-linecap="round" stroke-miterlimit="10" x1="259.1" y1="400.2" x2="328.4" y2="423.3"/>
		</g>
		<g>
			<defs>
				<path id="SVGID_43_" d="M180.6,334.4c1.3,76.9,181.7,64.8,328.8-8.9S706.1,113.7,689.1,79.7s-157.2-77-304.4-3.3
					S179,239.7,180.6,334.4z"/>
			</defs>
			<clipPath id="SVGID_12_">
				<use xlink:href="#SVGID_43_"  overflow="visible"/>
			</clipPath>
			<path clip-path="url(#SVGID_12_)" fill="#177A70" d="M698.8,81.5C696.4,80.8,672,107,672,107c0.7-29.8,28.3-41.4,28.3-41.4
				l8.2,10C708.6,75.7,705.9,87.5,698.8,81.5z"/>
		</g>
		<g>
			<defs>
				<path id="SVGID_45_" d="M180.6,334.4c1.3,76.9,181.7,64.8,328.8-8.9S706.8,114.9,689.1,79.7c-17.6-35.2-157.2-77-304.4-3.3
					S179,239.7,180.6,334.4z"/>
			</defs>
			<clipPath id="SVGID_14_">
				<use xlink:href="#SVGID_45_"  overflow="visible"/>
			</clipPath>
			<path clip-path="url(#SVGID_14_)" fill="#269A8F" d="M176,325.2c11.9-39.1,186.1-190.9,396.5-207c0,0-70-139.8-16-210.3
				c54-70.6-436.5,218.6-436.5,218.6S164.1,364.3,176,325.2z"/>
		</g>
		<path fill="#0E6054" d="M562.8,88.8l-126.4,22.1l8,25l19,37.9l19.7,22.7l93.9-79.6C576.9,116.8,562.8,107.1,562.8,88.8z"/>
		<path fill="#0E6054" d="M312.2,70l11.6,39.7l-1.9,15.8c0,0,45.4-40.3,118.9-61.8L312.2,70z"/>
		<circle fill="#177A70" cx="630.4" cy="75.8" r="10"/>
		<path fill="#33AEA6" d="M255.4,385.6c-97.5,17.8-126.2,108.1-126.2,108.1L53,341c21.4,19.3,107.1,12.6,127.3-22.5L255.4,385.6z"/>
		<g>
			<defs>
				<path id="SVGID_47_" d="M255.4,385.6c-97.5,17.8-126.2,108.1-126.2,108.1L53,341c21.4,19.3,107.1,12.6,127.3-22.5L255.4,385.6z"
					/>
			</defs>
			<clipPath id="SVGID_16_">
				<use xlink:href="#SVGID_47_"  overflow="visible"/>
			</clipPath>
			
				<rect x="25.5" y="295" transform="matrix(0.8941 -0.4478 0.4478 0.8941 -183.1163 78.9248)" clip-path="url(#SVGID_16_)" fill="#0E6054" width="99.7" height="263.5"/>
		</g>
	</g>
</g>
</svg>
