<?xml version="1.0" encoding="utf-8"?>
<!-- Generator: Adobe Illustrator 18.0.0, SVG Export Plug-In . SVG Version: 6.00 Build 0)  -->
<!DOCTYPE svg PUBLIC "-//W3C//DTD SVG 1.1//EN" "http://www.w3.org/Graphics/SVG/1.1/DTD/svg11.dtd">
<svg version="1.1" xmlns="http://www.w3.org/2000/svg" xmlns:xlink="http://www.w3.org/1999/xlink" x="0px" y="0px"
	 viewBox="0 0 736.6 531.1" enable-background="new 0 0 736.6 531.1" xml:space="preserve">
<g id="Right_Arm">
	<g id="Hand_1_">
	</g>
</g>
<g id="Left_Arm">
	<g id="Hand">
	</g>
</g>
<g id="Hat">
	<g id="Grey_Band">
	</g>
</g>
<g id="Body">
	<g id="Pants">
	</g>
	<g id="Jacked_Edge">
	</g>
	<g id="Grey_Shirt">
	</g>
</g>
<g id="Right_Leg">
	<g id="Shoe_1_">
	</g>
	<g id="Cuff_1_">
	</g>
</g>
<g id="Left_Leg">
	<g id="Shoe">
	</g>
	<g id="Leg">
	</g>
</g>
<g id="Eyes">
	<g id="Eye">
	</g>
</g>
<g id="Eyebrows">
	<g id="Eyebrow">
	</g>
</g>
<g id="Layer_27">
</g>
<g id="Nose">
</g>
<g id="Mouth">
</g>
<g id="Newspaper_Inner_Paper">
</g>
<g id="Head">
	<g>
		<path fill="#137565" d="M186.3,345.4c4.4,76.8,181.7,64.8,328.8-8.9S711.9,124.7,694.8,90.7c-17-34-157.2-77-304.4-3.3
			S181.1,252.5,186.3,345.4z"/>
		<g>
			<defs>
				<path id="SVGID_17_" d="M186.3,345.4c4.4,76.8,181.7,64.8,328.8-8.9S711.9,124.7,694.8,90.7c-17-34-157.2-77-304.4-3.3
					S181.1,252.5,186.3,345.4z"/>
			</defs>
			<use xlink:href="#SVGID_17_"  overflow="visible" fill="#137565"/>
			<clipPath id="SVGID_2_">
				<use xlink:href="#SVGID_17_"  overflow="visible"/>
			</clipPath>
			<line clip-path="url(#SVGID_2_)" fill="#137565" x1="626.4" y1="230.1" x2="695.7" y2="253.2"/>
			<line clip-path="url(#SVGID_2_)" fill="#137565" x1="609.2" y1="238.7" x2="678.5" y2="261.8"/>
			<line clip-path="url(#SVGID_2_)" fill="#137565" x1="592" y1="247.4" x2="661.3" y2="270.4"/>
			<line clip-path="url(#SVGID_2_)" fill="#137565" x1="574.8" y1="256" x2="644.1" y2="279"/>
			<line clip-path="url(#SVGID_2_)" fill="#137565" x1="557.6" y1="264.6" x2="626.9" y2="287.7"/>
			<line clip-path="url(#SVGID_2_)" fill="#137565" x1="540.3" y1="273.2" x2="609.6" y2="296.3"/>
			<line clip-path="url(#SVGID_2_)" fill="#137565" x1="523.1" y1="281.9" x2="592.4" y2="304.9"/>
			<line clip-path="url(#SVGID_2_)" fill="#137565" x1="505.9" y1="290.5" x2="575.2" y2="313.5"/>
			<line clip-path="url(#SVGID_2_)" fill="#137565" x1="488.7" y1="299.1" x2="558" y2="322.2"/>
			<line clip-path="url(#SVGID_2_)" fill="#137565" x1="471.5" y1="307.7" x2="540.8" y2="330.8"/>
			<line clip-path="url(#SVGID_2_)" fill="#137565" x1="454.2" y1="316.4" x2="523.5" y2="339.4"/>
			<line clip-path="url(#SVGID_2_)" fill="#137565" x1="437" y1="325" x2="506.3" y2="348"/>
			<line clip-path="url(#SVGID_2_)" fill="#137565" x1="419.8" y1="333.6" x2="489.1" y2="356.7"/>
			<line clip-path="url(#SVGID_2_)" fill="#137565" x1="402.6" y1="342.2" x2="471.9" y2="365.3"/>
			<line clip-path="url(#SVGID_2_)" fill="#137565" x1="385.3" y1="350.8" x2="454.7" y2="373.9"/>
			<line clip-path="url(#SVGID_2_)" fill="#137565" x1="368.1" y1="359.5" x2="437.4" y2="382.5"/>
			<line clip-path="url(#SVGID_2_)" fill="#137565" x1="350.9" y1="368.1" x2="420.2" y2="391.1"/>
			<line clip-path="url(#SVGID_2_)" fill="#137565" x1="333.7" y1="376.7" x2="403" y2="399.8"/>
			<line clip-path="url(#SVGID_2_)" fill="#137565" x1="316.5" y1="385.3" x2="385.8" y2="408.4"/>
			<line clip-path="url(#SVGID_2_)" fill="#137565" x1="299.2" y1="394" x2="368.5" y2="417"/>
			<line clip-path="url(#SVGID_2_)" fill="#137565" x1="282" y1="402.6" x2="351.3" y2="425.6"/>
			<line clip-path="url(#SVGID_2_)" fill="#137565" x1="264.8" y1="411.2" x2="334.1" y2="434.3"/>
		</g>
		<g>
			<defs>
				<path id="SVGID_19_" d="M186.3,345.4c1.3,76.9,181.7,64.8,328.8-8.9S711.9,124.7,694.8,90.7c-17-34-157.2-77-304.4-3.3
					S184.7,250.7,186.3,345.4z"/>
			</defs>
			<use xlink:href="#SVGID_19_"  overflow="visible" fill="#137565"/>
			<clipPath id="SVGID_4_">
				<use xlink:href="#SVGID_19_"  overflow="visible"/>
			</clipPath>
			<path clip-path="url(#SVGID_4_)" fill="#137565" d="M704.5,92.5c-2.4-0.7-26.8,25.5-26.8,25.5c0.7-29.8,28.3-41.4,28.3-41.4
				l8.2,10C714.3,86.7,711.6,98.5,704.5,92.5z"/>
		</g>
		<g>
			<defs>
				<path id="SVGID_21_" d="M186.3,345.4c1.3,76.9,181.7,64.8,328.8-8.9S712.5,125.9,694.8,90.7c-17.6-35.2-157.2-77-304.4-3.3
					S184.7,250.7,186.3,345.4z"/>
			</defs>
			<use xlink:href="#SVGID_21_"  overflow="visible" fill="#137565"/>
			<clipPath id="SVGID_6_">
				<use xlink:href="#SVGID_21_"  overflow="visible"/>
			</clipPath>
			<path clip-path="url(#SVGID_6_)" fill="#137565" d="M181.7,336.2c11.9-39.1,186.1-190.9,396.5-207c0,0-70-139.8-16-210.3
				S125.7,137.5,125.7,137.5S169.8,375.3,181.7,336.2z"/>
		</g>
		<path fill="#137565" d="M568.5,99.8l-126.4,22.1l8,25l19,37.9l19.7,22.7l93.9-79.6C582.6,127.8,568.5,118.1,568.5,99.8z"/>
		<path fill="#137565" d="M317.9,81l11.6,39.7l-1.9,15.8c0,0,45.4-40.3,118.9-61.8L317.9,81z"/>
		<circle fill="#137565" cx="636.1" cy="86.8" r="10"/>
		<path fill="#137565" d="M261.1,396.6c-97.5,17.8-126.2,108.1-126.2,108.1L58.7,352c21.4,19.3,107.1,12.6,127.3-22.5L261.1,396.6z"
			/>
		<g>
			<defs>
				<path id="SVGID_23_" d="M261.1,396.6c-97.5,17.8-126.2,108.1-126.2,108.1L58.7,352c21.4,19.3,107.1,12.6,127.3-22.5L261.1,396.6
					z"/>
			</defs>
			<use xlink:href="#SVGID_23_"  overflow="visible" fill="#137565"/>
			<clipPath id="SVGID_8_">
				<use xlink:href="#SVGID_23_"  overflow="visible"/>
			</clipPath>
			
				<rect x="31.2" y="306" transform="matrix(0.8941 -0.4478 0.4478 0.8941 -187.437 82.6475)" clip-path="url(#SVGID_8_)" fill="#137565" width="99.7" height="263.5"/>
		</g>
	</g>
	<g id="Grey_Hair">
	</g>
	<g id="Newspaper_Main">
	</g>
	<g>
		<path fill="#33AEA6" d="M180.6,334.4c4.4,76.8,181.7,64.8,328.8-8.9S706.1,113.7,689.1,79.7c-17-34-157.2-77-304.4-3.3
			S175.3,241.5,180.6,334.4z"/>
		<g>
			<defs>
				<path id="SVGID_33_" d="M180.6,334.4c4.4,76.8,181.7,64.8,328.8-8.9S706.1,113.7,689.1,79.7c-17-34-157.2-77-304.4-3.3
					S175.3,241.5,180.6,334.4z"/>
			</defs>
			<clipPath id="SVGID_10_">
				<use xlink:href="#SVGID_33_"  overflow="visible"/>
			</clipPath>
			
				<line clip-path="url(#SVGID_10_)" fill="none" stroke="#269A8F" stroke-width="10" stroke-linecap="round" stroke-miterlimit="10" x1="620.7" y1="219.1" x2="690" y2="242.2"/>
			
				<line clip-path="url(#SVGID_10_)" fill="none" stroke="#269A8F" stroke-width="10" stroke-linecap="round" stroke-miterlimit="10" x1="603.5" y1="227.7" x2="672.8" y2="250.8"/>
			
				<line clip-path="url(#SVGID_10_)" fill="none" stroke="#269A8F" stroke-width="10" stroke-linecap="round" stroke-miterlimit="10" x1="586.3" y1="236.4" x2="655.6" y2="259.4"/>
			
				<line clip-path="url(#SVGID_10_)" fill="none" stroke="#269A8F" stroke-width="10" stroke-linecap="round" stroke-miterlimit="10" x1="569.1" y1="245" x2="638.4" y2="268"/>
			
				<line clip-path="url(#SVGID_10_)" fill="none" stroke="#269A8F" stroke-width="10" stroke-linecap="round" stroke-miterlimit="10" x1="551.8" y1="253.6" x2="621.1" y2="276.7"/>
			
				<line clip-path="url(#SVGID_10_)" fill="none" stroke="#269A8F" stroke-width="10" stroke-linecap="round" stroke-miterlimit="10" x1="534.6" y1="262.2" x2="603.9" y2="285.3"/>
			
				<line clip-path="url(#SVGID_10_)" fill="none" stroke="#269A8F" stroke-width="10" stroke-linecap="round" stroke-miterlimit="10" x1="517.4" y1="270.9" x2="586.7" y2="293.9"/>
			
				<line clip-path="url(#SVGID_10_)" fill="none" stroke="#269A8F" stroke-width="10" stroke-linecap="round" stroke-miterlimit="10" x1="500.2" y1="279.5" x2="569.5" y2="302.5"/>
			
				<line clip-path="url(#SVGID_10_)" fill="none" stroke="#269A8F" stroke-width="10" stroke-linecap="round" stroke-miterlimit="10" x1="483" y1="288.1" x2="552.3" y2="311.2"/>
			
				<line clip-path="url(#SVGID_10_)" fill="none" stroke="#269A8F" stroke-width="10" stroke-linecap="round" stroke-miterlimit="10" x1="465.7" y1="296.7" x2="535" y2="319.8"/>
			
				<line clip-path="url(#SVGID_10_)" fill="none" stroke="#269A8F" stroke-width="10" stroke-linecap="round" stroke-miterlimit="10" x1="448.5" y1="305.4" x2="517.8" y2="328.4"/>
			
				<line clip-path="url(#SVGID_10_)" fill="none" stroke="#269A8F" stroke-width="10" stroke-linecap="round" stroke-miterlimit="10" x1="431.3" y1="314" x2="500.6" y2="337"/>
			
				<line clip-path="url(#SVGID_10_)" fill="none" stroke="#269A8F" stroke-width="10" stroke-linecap="round" stroke-miterlimit="10" x1="414.1" y1="322.6" x2="483.4" y2="345.7"/>
			
				<line clip-path="url(#SVGID_10_)" fill="none" stroke="#269A8F" stroke-width="10" stroke-linecap="round" stroke-miterlimit="10" x1="396.9" y1="331.2" x2="466.2" y2="354.3"/>
			
				<line clip-path="url(#SVGID_10_)" fill="none" stroke="#269A8F" stroke-width="10" stroke-linecap="round" stroke-miterlimit="10" x1="379.6" y1="339.8" x2="448.9" y2="362.9"/>
			
				<line clip-path="url(#SVGID_10_)" fill="none" stroke="#269A8F" stroke-width="10" stroke-linecap="round" stroke-miterlimit="10" x1="362.4" y1="348.5" x2="431.7" y2="371.5"/>
			
				<line clip-path="url(#SVGID_10_)" fill="none" stroke="#269A8F" stroke-width="10" stroke-linecap="round" stroke-miterlimit="10" x1="345.2" y1="357.1" x2="414.5" y2="380.1"/>
			
				<line clip-path="url(#SVGID_10_)" fill="none" stroke="#269A8F" stroke-width="10" stroke-linecap="round" stroke-miterlimit="10" x1="328" y1="365.7" x2="397.3" y2="388.8"/>
			
				<line clip-path="url(#SVGID_10_)" fill="none" stroke="#269A8F" stroke-width="10" stroke-linecap="round" stroke-miterlimit="10" x1="310.8" y1="374.3" x2="380.1" y2="397.4"/>
			
				<line clip-path="url(#SVGID_10_)" fill="none" stroke="#269A8F" stroke-width="10" stroke-linecap="round" stroke-miterlimit="10" x1="293.5" y1="383" x2="362.8" y2="406"/>
			
				<line clip-path="url(#SVGID_10_)" fill="none" stroke="#269A8F" stroke-width="5" stroke-linecap="round" stroke-miterlimit="10" x1="276.3" y1="391.6" x2="345.6" y2="414.6"/>
			
				<line clip-path="url(#SVGID_10_)" fill="none" stroke="#269A8F" stroke-width="5" stroke-linecap="round" stroke-miterlimit="10" x1="259.1" y1="400.2" x2="328.4" y2="423.3"/>
		</g>
		<g>
			<defs>
				<path id="SVGID_35_" d="M180.6,334.4c1.3,76.9,181.7,64.8,328.8-8.9S706.1,113.7,689.1,79.7c-17-34-157.2-77-304.4-3.3
					S179,239.7,180.6,334.4z"/>
			</defs>
			<clipPath id="SVGID_12_">
				<use xlink:href="#SVGID_35_"  overflow="visible"/>
			</clipPath>
			<path clip-path="url(#SVGID_12_)" fill="#177A70" d="M692.5,75.7c-0.3,2.5-34.2,14.1-34.2,14.1c27.5,11.4,49.3-9,49.3-9
				l-5.8-11.6C701.9,69.1,689.9,66.7,692.5,75.7z"/>
		</g>
		<g>
			<defs>
				<path id="SVGID_37_" d="M180.6,334.4c1.3,76.9,181.7,64.8,328.8-8.9S706.8,114.9,689.1,79.7c-17.6-35.2-157.2-77-304.4-3.3
					S179,239.7,180.6,334.4z"/>
			</defs>
			<clipPath id="SVGID_14_">
				<use xlink:href="#SVGID_37_"  overflow="visible"/>
			</clipPath>
			<path clip-path="url(#SVGID_14_)" fill="#269A8F" d="M176,325.2c11.9-39.1,186.1-190.9,396.5-207c0,0-70-139.8-16-210.3
				S120,126.5,120,126.5S164.1,364.3,176,325.2z"/>
		</g>
		<path fill="#0E6054" d="M562.8,88.8l-126.4,22.1l8,25l19,37.9l19.7,22.7l93.9-79.6C576.9,116.8,562.8,107.1,562.8,88.8z"/>
		<path fill="#0E6054" d="M312.2,70l11.6,39.7l-1.9,15.8c0,0,45.4-40.3,118.9-61.8L312.2,70z"/>
		<circle fill="#177A70" cx="630.4" cy="75.8" r="10"/>
		<path fill="#33AEA6" d="M255.4,385.6c-97.5,17.8-126.2,108.1-126.2,108.1L53,341c21.4,19.3,107.1,12.6,127.3-22.5L255.4,385.6z"/>
		<g>
			<defs>
				<path id="SVGID_39_" d="M255.4,385.6c-97.5,17.8-126.2,108.1-126.2,108.1L53,341c21.4,19.3,107.1,12.6,127.3-22.5L255.4,385.6z"
					/>
			</defs>
			<clipPath id="SVGID_16_">
				<use xlink:href="#SVGID_39_"  overflow="visible"/>
			</clipPath>
			
				<rect x="25.5" y="295" transform="matrix(0.8941 -0.4478 0.4478 0.8941 -183.1163 78.9248)" clip-path="url(#SVGID_16_)" fill="#0E6054" width="99.7" height="263.5"/>
		</g>
	</g>
</g>
</svg>
