<?xml version="1.0" encoding="utf-8"?>
<!-- Generator: Adobe Illustrator 18.0.0, SVG Export Plug-In . SVG Version: 6.00 Build 0)  -->
<!DOCTYPE svg PUBLIC "-//W3C//DTD SVG 1.1//EN" "http://www.w3.org/Graphics/SVG/1.1/DTD/svg11.dtd">
<svg version="1.1" xmlns="http://www.w3.org/2000/svg" xmlns:xlink="http://www.w3.org/1999/xlink" x="0px" y="0px"
	 viewBox="0 0 296 420.5" enable-background="new 0 0 296 420.5" xml:space="preserve">
<g id="Right_Arm">
	<g id="Hand_1_">
	</g>
</g>
<g id="Left_Arm">
	<g id="Hand">
	</g>
</g>
<g id="Hat">
	<g id="Grey_Band">
	</g>
</g>
<g id="Body">
	<g id="Pants">
	</g>
	<g id="Jacked_Edge">
	</g>
	<g id="Grey_Shirt">
	</g>
</g>
<g id="Right_Leg">
	<g id="Shoe_1_">
	</g>
	<g id="Cuff_1_">
	</g>
</g>
<g id="Left_Leg">
	<g id="Shoe">
	</g>
	<g id="Leg">
	</g>
</g>
<g id="Eyes">
	<g id="Eye">
	</g>
</g>
<g id="Eyebrows">
	<g id="Eyebrow">
	</g>
</g>
<g id="Layer_27">
</g>
<g id="Nose">
</g>
<g id="Mouth">
</g>
<g id="Newspaper_Inner_Paper">
</g>
<g id="Head">
	<g id="Grey_Hair">
	</g>
	<g id="Newspaper_Main">
	</g>
	
		<rect id="Arm_7_" x="36.7" y="193.6" transform="matrix(0.8017 0.5978 -0.5978 0.8017 159.2774 21.1407)" fill="#157F59" width="22.2" height="113.9"/>
	<path fill="#FFD392" d="M21.2,305.5c-3.9,5.2-11.2,6.3-16.4,2.4c-5.2-3.9-6.3-11.2-2.4-16.4c3.9-5.2,11.2-6.3,16.4-2.4
		C24,293,25,300.3,21.2,305.5z"/>
	
		<rect id="Arm_6_" x="220.8" y="140.8" transform="matrix(-0.4609 -0.8875 0.8875 -0.4609 163.3263 494.6508)" fill="#157F59" width="22.2" height="113.9"/>
	<path fill="#FFD392" d="M278.8,159.9c5.8-3,12.9-0.7,15.8,5c3,5.8,0.7,12.9-5,15.8c-5.8,3-12.9,0.7-15.8-5
		C270.8,170,273.1,162.9,278.8,159.9z"/>
	<rect id="Head_4_" x="58.3" y="98.7" fill="#FFD392" width="147.3" height="100.7"/>
	<path fill="#7D411C" d="M65.9,108.6c0,0,0.6-9.4,16.9-5.6c14.8,3.4,34.4,8.4,48.4,8.8c15.4,0.4,38.6-3.4,38.6-3.4
		s14.9-4.4,24.6-2.8c0,0.7,10.7,64.2,10.7,64.2c5.3-3.9,11.4-57.5,1.7-84.5c0,0-11.8-4.5-12.6-4.9c-4.2-2.1-1.3,4.5-9,6.4
		c-6.5,1.6-48.8,7.3-55.5,7.5c-6.4,0.2-22-5.2-25.9-7.3c-7.5-4.1-26,2.6-26.2,2.7c-6.9,1.5-16.2-13.4-23.2-7
		c-9.8,8.9-1.1,82.2,4,81.7"/>
	<path id="Hat_4_" fill="#157F59" d="M51,85.1c0,0-31.8,7.4-31.8,14c0,6.5,4.8,10,36.6,11.2c31.7,1.2,48.7,6.2,77.6,6.2
		c28,0,60.9-5.3,77.2-5.8c17-0.5,32.2-1,32.4-8.8c0.2-7.7-31.2-19.1-36.1-21.2c-4.9-2.1-15.6-53-15.6-53s-3.9-14.7-14.7-14
		c-13.5,0.9-25.6,9.1-47.4,9.9c-21.4,0.9-34.8-9.8-46.2-10.5c-11.4-0.7-14.4,9.3-14.4,9.3L51,85.1z"/>
	<path fill="#C1C1C0" d="M200.1,63.3c-0.1,0-8.4,3.5-8.5,3.5c-55.9,25.9-135.3-0.6-135.3-0.6L51,85.1c0,0,18.6,11.3,79,11
		c38.5-0.1,68.3-10.4,76.2-16.2c-0.1-0.3-2.5-5.2-2.6-5.5"/>
	<rect x="57.8" y="328.7" fill="#7D411C" width="147.6" height="12.5"/>
	<polygon id="Shirt_4_" fill="#157F59" points="205.5,329 57.8,329 57.8,192.9 96.8,192.9 99.9,193.4 134.5,206.3 158.8,194.9 
		163.3,192.9 205.5,192.9 	"/>
	<polygon fill="#5C090F" points="163.4,329 96.4,329 96.4,192.9 100.3,192.9 132.9,197.4 159.2,192.9 163.4,192.9 	"/>
	<rect x="100.3" y="192.9" fill="#B2B3B3" width="58.9" height="136.1"/>
	<circle fill="#0C2024" cx="91.8" cy="403.1" r="11.4"/>
	<rect id="Leg_5_" x="80.4" y="332.8" fill="#7D411C" width="22.8" height="70.3"/>
	<rect x="80.4" y="386.3" fill="#0C2024" width="22.9" height="7.2"/>
	<path id="Eye_4_" fill="#383025" d="M168.1,130.4c0,6.1-3.6,11-8.1,11c-4.4,0-8-4.9-8-11c0-6.1,3.8-9.1,8.2-9.1
		C164.7,121.3,168.1,124.4,168.1,130.4z"/>
	<path fill="#383025" d="M110.4,130.1c0,6.3-3.7,11.4-8.3,11.4c-4.6,0-8.3-5.1-8.3-11.4c0-6.3,4.1-9.5,8.7-9.5
		C107.1,120.6,110.4,123.7,110.4,130.1z"/>
	<path id="Nose_4_" fill="#383025" d="M133.8,142l5.2,17.7c0.3,1.2-0.6,2.4-1.8,2.4l-6.2,0v-2.4l4.9,0.1c0.4,0,0.6-0.3,0.5-0.7"/>
	<g>
		<path fill="#383025" d="M146.6,167.5c0,0-0.1,0.4-0.5,1c-0.2,0.3-0.4,0.7-0.7,1c-0.3,0.4-0.7,0.8-1.1,1.2c-0.4,0.4-1,0.8-1.5,1.2
			c-0.6,0.3-1.2,0.8-1.9,1c-0.4,0.2-0.7,0.3-1.1,0.4c-0.4,0.1-0.8,0.2-1.2,0.3c-0.8,0.3-1.6,0.3-2.4,0.4c-0.8,0-1.6,0-2.4,0
			c-0.8-0.1-1.6-0.2-2.3-0.4c-0.7-0.2-1.4-0.4-2.1-0.7c-0.6-0.3-1.2-0.6-1.7-0.9c-0.5-0.3-1-0.6-1.4-0.9c-0.4-0.3-0.7-0.6-1-0.8
			c-0.5-0.5-0.8-0.8-0.8-0.8s0.4,0,1.1,0.1c0.3,0,0.7,0.1,1.2,0.1c0.4,0.1,1,0.1,1.5,0.1c0.5,0,1.1,0.1,1.7,0.2
			c0.6,0,1.2,0.1,1.9,0.1c0.6,0,1.3,0,2,0c0.7-0.1,1.3,0,2-0.1c0.7-0.1,1.3-0.1,2-0.2c0.3-0.1,0.6-0.1,1-0.1
			c0.3-0.1,0.6-0.1,0.9-0.2c0.6-0.1,1.2-0.3,1.8-0.4c0.6-0.2,1.1-0.3,1.6-0.5c0.5-0.2,1-0.3,1.4-0.5c0.4-0.2,0.8-0.3,1.1-0.4
			C146.3,167.7,146.6,167.5,146.6,167.5z"/>
	</g>
	<circle fill="#0C2024" cx="165.6" cy="403.1" r="11.4"/>
	<rect id="Leg_6_" x="154.2" y="332.8" fill="#7D411C" width="22.8" height="70.3"/>
	<rect x="154.2" y="386.3" fill="#0C2024" width="22.9" height="7.2"/>
</g>
</svg>
