<?xml version="1.0" encoding="utf-8"?>
<!-- Generator: Adobe Illustrator 18.0.0, SVG Export Plug-In . SVG Version: 6.00 Build 0)  -->
<!DOCTYPE svg PUBLIC "-//W3C//DTD SVG 1.1//EN" "http://www.w3.org/Graphics/SVG/1.1/DTD/svg11.dtd">
<svg version="1.1" xmlns="http://www.w3.org/2000/svg" xmlns:xlink="http://www.w3.org/1999/xlink" x="0px" y="0px"
	 viewBox="0 0 511 619.3" enable-background="new 0 0 511 619.3" xml:space="preserve">
<g id="Right_Arm">
	<g id="Hand_1_">
	</g>
</g>
<g id="Left_Arm">
	<g id="Hand">
	</g>
</g>
<g id="Hat">
	<g id="Grey_Band">
	</g>
</g>
<g id="Body">
	<g id="Pants">
	</g>
	<g id="Jacked_Edge">
	</g>
	<g id="Grey_Shirt">
	</g>
</g>
<g id="Right_Leg">
	<g id="Shoe_1_">
	</g>
	<g id="Cuff_1_">
	</g>
</g>
<g id="Left_Leg">
	<g id="Shoe">
	</g>
	<g id="Leg">
	</g>
</g>
<g id="Eyes">
	<g id="Eye">
	</g>
</g>
<g id="Eyebrows">
	<g id="Eyebrow">
	</g>
</g>
<g id="Layer_27">
	<g>
		<circle fill="#1F9954" cx="304.8" cy="269.3" r="46.1"/>
		<circle fill="#1F9954" cx="294.8" cy="400" r="30.8"/>
		<circle fill="#1F9954" cx="337.8" cy="334.2" r="85.4"/>
	</g>
	<path fill="#426869" d="M537.6,178.7c-10.6-0.5-21.1,0.7-31.7,1.4c-0.3,0-0.7-0.1-1,0.1c-5.6,3.2-11,2.4-16.3-0.7
		c-8.6,1.3-17.3,1.9-26,2.2c-4.1,0.1-8.3-0.4-12.4,0.9c-1.6,0.5-3.3,0.7-3.8,2.7c3.1,6.3,7.3,11.9,11.6,17.4
		c6.1,7.6,9,16.2,8.9,25.9c0,45.1,0,90.2,0,135.3c0,13.8-9.2,19-21.3,12.1c-21.8-12.4-41.3-27.9-59-45.7c-3.4-1.8-6.9-1.2-10.5-0.7
		c-10,1.4-20.1,1.3-30.3,1.4c-2.2,0-5.5-0.6-4.6,3.7c15.9,21,35,38.8,56,54.5c10.7,8,22,15.1,33.6,21.5c15.7,8.7,23.4,22.1,23.4,40
		c0,51,0,102,0,152.9c0,2-0.1,4,0.1,6c0.5,7,15.3,11.8,22.3,11.8"/>
	<g>
		<path fill="#1F9954" d="M462.9,66.7"/>
		<path fill="#1F9954" d="M516.9,107.3c-47.2,0-85.4,38.2-85.4,85.4s38.2,85.4,85.4,85.4"/>
		<circle fill="#1F9954" cx="431.4" cy="78" r="70.7"/>
		<circle fill="#1F9954" cx="392.3" cy="127.3" r="70.7"/>
		<circle fill="#1F9954" cx="415.4" cy="183.4" r="56.1"/>
	</g>
	<path fill="#588B8C" d="M515.1,180.1c-0.3,0-0.7-0.1-1,0.1c-5.6,3.2-11,2.4-16.3-0.7c-8.6,1.3-17.3,1.9-26,2.2
		c-4.1,0.1-8.3-0.4-12.4,0.9c-1.6,0.5-3.3,0.7-3.8,2.7c3.1,6.3,7.3,11.9,11.6,17.4c6.1,7.6,9,16.2,8.9,25.9c0,45.1,0,90.2,0,135.3
		c0,13.8-9.2,19-21.3,12.1c-21.8-12.4-41.3-27.9-59-45.7c-3.4-1.8-6.9-1.2-10.5-0.7c-10,1.4-20.1,1.3-30.3,1.4
		c-2.2,0-5.5-0.6-4.6,3.7c15.9,21,35,38.8,56,54.5c10.7,8,22,15.1,33.6,21.5c15.7,8.7,23.4,22.1,23.4,40c0,51,0,102,0,152.9
		c0,2-0.1,4,0.1,6c0.5,7,5.3,11.8,12.3,11.8c13.7,0,27.4,0.1,41,0.1"/>
	<g>
		<path fill="#24AE5F" d="M475.5,66.7"/>
		<path fill="#24AE5F" d="M529.4,107.3c-47.2,0-85.4,38.2-85.4,85.4s38.2,85.4,85.4,85.4"/>
		<circle fill="#24AE5F" cx="444" cy="78" r="70.7"/>
		<circle fill="#24AE5F" cx="404.8" cy="127.3" r="70.7"/>
		<circle fill="#24AE5F" cx="427.9" cy="183.4" r="56.1"/>
	</g>
	<g>
		<circle fill="#24AE5F" cx="315.8" cy="269.3" r="46.1"/>
		<circle fill="#24AE5F" cx="305.8" cy="400" r="30.8"/>
		<circle fill="#24AE5F" cx="348.8" cy="334.2" r="85.4"/>
	</g>
</g>
<g id="Nose">
</g>
<g id="Mouth">
</g>
<g id="Newspaper_Inner_Paper">
</g>
<g id="Head">
	<g id="Grey_Hair">
	</g>
	
		<rect id="Arm_2_" x="140.1" y="336" transform="matrix(-0.4365 0.8997 -0.8997 -0.4365 570.7818 428.4481)" fill="#157F59" width="22.2" height="113.9"/>
	<path fill="#FFD392" d="M92.3,377.1c-5.8-2.8-8.3-9.9-5.4-15.7c2.8-5.8,9.9-8.3,15.7-5.4c5.8,2.8,8.3,9.9,5.4,15.7
		C105.1,377.5,98.1,380,92.3,377.1z"/>
	
		<rect id="Arm_3_" x="344.3" y="335.9" transform="matrix(-0.4609 -0.8875 0.8875 -0.4609 170.5426 889.3893)" fill="#157F59" width="22.2" height="113.9"/>
	<path fill="#FFD392" d="M402.3,355c5.8-3,12.9-0.7,15.8,5c3,5.8,0.7,12.9-5,15.8c-5.8,3-12.9,0.7-15.8-5
		C394.3,365.1,396.6,358,402.3,355z"/>
	<rect id="Head_2_" x="181.9" y="293.9" fill="#FFD392" width="147.3" height="100.7"/>
	<path fill="#7D411C" d="M189.4,303.8c0,0,0.6-9.4,16.9-5.6c14.8,3.4,34.4,8.4,48.4,8.8c15.4,0.4,38.6-3.4,38.6-3.4
		s14.9-4.4,24.6-2.8c0,0.7,10.7,64.2,10.7,64.2c5.3-3.9,11.4-57.5,1.7-84.5c0,0-11.8-4.5-12.6-4.9c-4.2-2.1-1.3,4.5-9,6.4
		c-6.5,1.6-48.8,7.3-55.5,7.5c-6.4,0.2-22-5.2-25.9-7.3c-7.5-4.1-26,2.6-26.2,2.7c-6.9,1.5-16.2-13.4-23.2-7
		c-9.8,8.9-1.1,82.2,4,81.7"/>
	<path id="Hat_2_" fill="#157F59" d="M174.5,280.3c0,0-31.8,7.4-31.8,14c0,6.5,4.8,10,36.6,11.2c31.7,1.2,48.7,6.2,77.6,6.2
		c28,0,60.9-5.3,77.2-5.8c17-0.5,32.2-1,32.4-8.8c0.2-7.7-31.2-19.1-36.1-21.2c-4.9-2.1-15.6-53-15.6-53s-3.9-14.7-14.7-14
		c-13.5,0.9-25.6,9.1-47.4,9.9c-21.4,0.9-34.8-9.8-46.2-10.5c-11.4-0.7-14.4,9.3-14.4,9.3L174.5,280.3z"/>
	<path fill="#C1C1C0" d="M323.6,258.5c-0.1,0-8.4,3.5-8.5,3.5c-55.9,25.9-135.3-0.6-135.3-0.6l-5.3,18.8c0,0,18.6,11.3,79,11
		c38.5-0.1,68.3-10.4,76.2-16.2c-0.1-0.3-2.5-5.2-2.6-5.5"/>
	<rect x="181.3" y="523.9" fill="#7D411C" width="147.6" height="12.5"/>
	<polygon id="Shirt_1_" fill="#157F59" points="329,524.2 181.3,524.2 181.3,388.1 220.3,388.1 223.4,388.6 258,401.4 282.3,390.1 
		286.8,388.1 329,388.1 	"/>
	<polygon fill="#5C090F" points="286.9,524.2 219.9,524.2 219.9,388.1 223.8,388.1 256.5,392.6 282.7,388.1 286.9,388.1 	"/>
	<rect x="223.8" y="388.1" fill="#B2B3B3" width="58.9" height="136.1"/>
	<circle fill="#0C2024" cx="215.3" cy="598.3" r="11.4"/>
	<rect id="Leg_1_" x="203.9" y="528" fill="#7D411C" width="22.8" height="70.3"/>
	<rect x="203.9" y="581.5" fill="#0C2024" width="22.9" height="7.2"/>
	<circle fill="#0C2024" cx="291.8" cy="599.3" r="11.4"/>
	<rect id="Cuff_3_" x="280.4" y="581.5" fill="#0C2024" width="22.8" height="7.8"/>
	<rect x="280.4" y="528.3" fill="#7D411C" width="23.3" height="70.5"/>
	<path id="Eye_2_" fill="#383025" d="M291.6,325.6c0,6.1-3.6,11-8.1,11c-4.4,0-8-4.9-8-11c0-6.1,3.8-9.1,8.2-9.1
		C288.2,316.5,291.6,319.6,291.6,325.6z"/>
	<path fill="#383025" d="M233.9,325.2c0,6.3-3.7,11.4-8.3,11.4c-4.6,0-8.3-5.1-8.3-11.4c0-6.3,4.1-9.5,8.7-9.5
		C230.6,315.7,233.9,318.9,233.9,325.2z"/>
	<path id="Nose_1_" fill="#383025" d="M257.4,337.2l5.2,17.7c0.3,1.2-0.6,2.4-1.8,2.4l-6.2,0V355l4.9,0.1c0.4,0,0.6-0.3,0.5-0.7"/>
	<g>
		<path fill="#383025" d="M270.1,362.7c0,0-0.1,0.4-0.5,1c-0.2,0.3-0.4,0.7-0.7,1c-0.3,0.4-0.7,0.8-1.1,1.2c-0.4,0.4-1,0.8-1.5,1.2
			c-0.6,0.3-1.2,0.8-1.9,1c-0.4,0.2-0.7,0.3-1.1,0.4c-0.4,0.1-0.8,0.2-1.2,0.3c-0.8,0.3-1.6,0.3-2.4,0.4c-0.8,0-1.6,0-2.4,0
			c-0.8-0.1-1.6-0.2-2.3-0.4c-0.7-0.2-1.4-0.4-2.1-0.7c-0.6-0.3-1.2-0.6-1.7-0.9c-0.5-0.3-1-0.6-1.4-0.9c-0.4-0.3-0.7-0.6-1-0.8
			c-0.5-0.5-0.8-0.8-0.8-0.8s0.4,0,1.1,0.1c0.3,0,0.7,0.1,1.2,0.1c0.4,0.1,1,0.1,1.5,0.1c0.5,0,1.1,0.1,1.7,0.2
			c0.6,0,1.2,0.1,1.9,0.1c0.6,0,1.3,0,2,0c0.7-0.1,1.3,0,2-0.1c0.7-0.1,1.3-0.1,2-0.2c0.3-0.1,0.6-0.1,1-0.1
			c0.3-0.1,0.6-0.1,0.9-0.2c0.6-0.1,1.2-0.3,1.8-0.4c0.6-0.2,1.1-0.3,1.6-0.5c0.5-0.2,1-0.3,1.4-0.5c0.4-0.2,0.8-0.3,1.1-0.4
			C269.8,362.8,270.1,362.7,270.1,362.7z"/>
	</g>
	<rect x="280.9" y="581.5" fill="#0C2024" width="22.9" height="7.2"/>
	<g id="Newspaper_Main">
		<path fill="#808E8B" d="M33.2,501c25.2-8,18.5-32.9,65.3-28.2s26.2,37.5,68.5,27.4c54.4-2.4,60,65.7,40.3,78.2s-25,53.4-74.9,37.3
			c-50-16.1-65.3,2.5-87.4,0c-20-2.2-55.6-37.7-40.7-57.8C19.1,537.7-11.1,515.1,33.2,501z"/>
		<path fill="#A4B7B3" d="M33.2,501c25.2-8,18.5-32.9,65.3-28.2c38.3,2.4,42.2,30.9,44.3,55.6c1.3,15.4-14.5,13.7-14.5,32.6
			c0,18.9-25.5,58.4-83.4,54.6c-20-2.2-55.6-37.7-40.7-57.8C19.1,537.7-11.1,515.1,33.2,501z"/>
		<path fill="#E3E9E7" d="M97.2,505.6c-9.5,3-7,12.4-24.6,10.6c-14.4-0.9-22.5-7.5-16.7-21c5.8-13.5,30.7-18.9,52.3-11.1
			S113.9,500.3,97.2,505.6z"/>
		<ellipse fill="#507065" cx="57.2" cy="595.3" rx="14.3" ry="6.4"/>
		<ellipse fill="#507065" cx="92.3" cy="522" rx="15.3" ry="9.9"/>
		<ellipse fill="#507065" cx="38.8" cy="561" rx="15.3" ry="9.9"/>
		<path fill="#507065" d="M150.1,561c0,1.6,1.8,2.9,4.7,2.9c2.9,0,4.7-1.3,4.7-2.9c0-1.6-1.8-2.9-4.7-2.9
			C151.9,558.1,150.1,559.4,150.1,561z"/>
		<path fill="#507065" d="M92.3,577.6c0,3.6,4,6.5,10.4,6.5c6.4,0,10.4-2.9,10.4-6.5s-4-6.5-10.4-6.5
			C96.3,571.1,92.3,574,92.3,577.6z"/>
		<path fill="#507065" d="M144.5,604.5c0,3.6,4,6.5,10.4,6.5c6.4,0,10.4-2.9,10.4-6.5s-4-6.5-10.4-6.5
			C148.5,598.1,144.5,601,144.5,604.5z"/>
		<path fill="#507065" d="M167.8,531.8c0,3.6,4,6.5,10.4,6.5c6.4,0,10.4-2.9,10.4-6.5s-4-6.5-10.4-6.5
			C171.8,525.4,167.8,528.3,167.8,531.8z"/>
		<path fill="none" stroke="#C58B76" stroke-width="20" stroke-linecap="round" stroke-miterlimit="10" d="M441.8,572.2
			c0,0-15.9,20-33.8,22.6c-17.9,2.6-52-28.6-71.3-25.7c-19.2,2.8-25.6,27.9-25.6,27.9"/>
		<path fill="none" stroke="#F6AD93" stroke-width="20" stroke-linecap="round" stroke-miterlimit="10" d="M440.9,568.8
			c0,0-15.2,20.5-33.1,23.2c-17.9,2.6-52-28.6-71.3-25.7c-19.2,2.8-26.2,28-26.2,28"/>
		<path fill="#383025" d="M445.6,573.1c-0.9,1-2.8,1.6-3.8,0.7s-0.7-2.8,0.1-3.8c0.9-1,2.4-1.1,3.4-0.3
			C446.4,570.6,446.5,572.1,445.6,573.1z"/>
		<path fill="#383025" d="M439.8,568.2c-0.9,1-2.8,1.6-3.8,0.7c-1-0.9-0.7-2.8,0.1-3.8c0.9-1,2.4-1.1,3.4-0.3
			C440.6,565.7,440.7,567.2,439.8,568.2z"/>
		<g>
			<path fill="#383025" d="M440.6,579.1c0,0-0.2,0.1-0.7,0.2c-0.4,0.1-1.1,0.2-1.8,0.2c-0.4,0-0.8-0.1-1.2-0.2
				c-0.4-0.1-0.9-0.2-1.3-0.4c-0.4-0.2-0.9-0.4-1.3-0.7c-0.4-0.3-0.8-0.6-1.2-1c-0.4-0.4-0.7-0.8-1-1.1c-0.3-0.4-0.5-0.8-0.8-1.2
				c-0.2-0.4-0.4-0.9-0.5-1.3c-0.1-0.4-0.2-0.8-0.3-1.2c-0.1-0.7-0.1-1.4-0.1-1.8c0-0.4,0.1-0.7,0.1-0.7s0.2,0.2,0.5,0.5
				c0.1,0.2,0.3,0.3,0.5,0.6c0.2,0.2,0.4,0.5,0.6,0.7c0.2,0.3,0.4,0.5,0.7,0.8c0.2,0.3,0.5,0.6,0.7,0.9c0.3,0.3,0.5,0.6,0.8,0.9
				c0.3,0.3,0.5,0.6,0.8,0.8c0.3,0.3,0.6,0.6,0.9,0.8c0.1,0.1,0.3,0.2,0.4,0.4c0.1,0.1,0.3,0.2,0.4,0.4c0.3,0.3,0.6,0.4,0.9,0.7
				c0.3,0.2,0.6,0.4,0.8,0.6c0.5,0.4,1,0.7,1.4,0.9C440.3,578.9,440.6,579.1,440.6,579.1z"/>
		</g>
	</g>
</g>
</svg>
