<?xml version="1.0" encoding="utf-8"?>
<!-- Generator: Adobe Illustrator 18.0.0, SVG Export Plug-In . SVG Version: 6.00 Build 0)  -->
<!DOCTYPE svg PUBLIC "-//W3C//DTD SVG 1.1//EN" "http://www.w3.org/Graphics/SVG/1.1/DTD/svg11.dtd">
<svg version="1.1" xmlns="http://www.w3.org/2000/svg" xmlns:xlink="http://www.w3.org/1999/xlink" x="0px" y="0px"
	 viewBox="0 0 295 299.5" enable-background="new 0 0 295 299.5" xml:space="preserve">
<g id="Right_Arm">
	<g id="Hand_1_">
	</g>
</g>
<g id="Left_Arm">
	<g id="Hand">
	</g>
</g>
<g id="Hat">
	<g id="Grey_Band">
	</g>
</g>
<g id="Body">
	<g id="Pants">
	</g>
	<g id="Jacked_Edge">
	</g>
	<g id="Grey_Shirt">
	</g>
</g>
<g id="Right_Leg">
	<g id="Shoe_1_">
	</g>
	<g id="Cuff_1_">
	</g>
</g>
<g id="Left_Leg">
	<g id="Shoe">
	</g>
	<g id="Leg">
	</g>
</g>
<g id="Eyes">
	<g id="Eye">
	</g>
</g>
<g id="Eyebrows">
	<g id="Eyebrow">
	</g>
</g>
<g id="Layer_27">
</g>
<g id="Nose">
</g>
<g id="Mouth">
</g>
<g id="Newspaper_Inner_Paper">
</g>
<g id="Head">
	<g id="Grey_Hair">
	</g>
	<g id="Newspaper_Main">
		<path fill="none" stroke="#C58B76" stroke-width="40" stroke-linecap="round" stroke-miterlimit="10" d="M261.5,43.5
			c0,0-2,59-31.5,88.5S94.3,150.7,62.5,182.5s-9,87-9,87"/>
		<path fill="none" stroke="#F6AD93" stroke-width="40" stroke-linecap="round" stroke-miterlimit="10" d="M255,38.5
			c0,0,0,59-29.5,88.5S89.8,145.7,58,177.5s-10,88-10,88"/>
		<path fill="#383025" d="M252,37.5c0,2.3-1.8,5.1-4.1,5.1c-2.3,0-4.1-2.8-4.1-5.1s1.8-4.1,4.1-4.1C250.2,33.4,252,35.2,252,37.5z"
			/>
		<path fill="#383025" d="M267.3,38.5c0,2.3-1.8,5.1-4.1,5.1c-2.3,0-4.1-2.8-4.1-5.1s1.8-4.1,4.1-4.1
			C265.4,34.4,267.3,36.2,267.3,38.5z"/>
		<g>
			<path fill="#383025" d="M265,50.5c0,0-0.2,0.4-0.6,0.9c-0.2,0.3-0.5,0.6-0.9,0.9c-0.4,0.3-0.8,0.7-1.3,1c-0.5,0.4-1.1,0.6-1.7,1
				c-0.6,0.3-1.3,0.6-2.1,0.8c-0.4,0.1-0.7,0.2-1.1,0.3c-0.4,0.1-0.8,0.1-1.2,0.2c-0.8,0.1-1.6,0.1-2.4,0.1
				c-0.8-0.1-1.6-0.2-2.4-0.3c-0.8-0.2-1.5-0.4-2.2-0.7c-0.7-0.3-1.3-0.6-1.9-1c-0.6-0.3-1.1-0.7-1.6-1.1c-0.5-0.4-0.9-0.7-1.2-1.1
				c-0.3-0.3-0.6-0.7-0.8-0.9c-0.4-0.5-0.7-0.9-0.7-0.9s0.4,0.1,1.1,0.2c0.3,0.1,0.7,0.2,1.2,0.3c0.4,0.1,0.9,0.2,1.5,0.3
				c0.5,0.1,1.1,0.3,1.7,0.4c0.6,0.1,1.2,0.2,1.8,0.4c0.6,0.1,1.3,0.2,1.9,0.3c0.7,0,1.3,0.1,2,0.2c0.7,0,1.3,0.1,2,0.1
				c0.3,0,0.7,0,1,0c0.3,0,0.6-0.1,1-0.1c0.6,0,1.2-0.1,1.8-0.2c0.6-0.1,1.2-0.1,1.7-0.3c0.5-0.1,1-0.2,1.5-0.3
				c0.4-0.1,0.8-0.2,1.2-0.3C264.6,50.6,265,50.5,265,50.5z"/>
		</g>
	</g>
</g>
</svg>
